<svg width="227" height="212" fill="none" xmlns="http://www.w3.org/2000/svg"><g clip-path="url(#clip0_52_424)"><path d="M181.554 181.347a103.475 103.475 0 000-148.002c-41.533-40.87-108.871-40.87-150.404 0a103.475 103.475 0 000 148.002c41.533 40.869 108.871 40.869 150.404 0z" fill="#B2E0E7"/><path d="M33.382 82.437l4.516-6.112 69.633-47.83 64.489 47.088 5.043 6.591 3.026 4.778.155 81.335-1.337 2.147-4.185 3.802-2.345 1.159-133.118.244-3.19-1.478-3.861-3.458-1.18-2.473-.15-80.014 2.504-5.78z" fill="#fff"/><path d="M137.037 71.222s.193-7.64 1.189-10.173c.995-2.531 5.713-9.229 7.3-9.767 3.48-1.179 9.909 8.954 10.611 11.083.701 2.13 1.121 9.714 1.121 9.714l-10.674 3.679-9.547-4.536z" fill="#C0242D"/><path d="M151.85 68.68s5.837-4.386 9.171-5.795c3.335-1.408 9.36-3.19 11.084-2.009 1.726 1.181 2.045 5.786.596 9.396-1.449 3.611-7.288 15.68-7.288 15.68L151.85 68.681zm-29.775 9.975s-1.284-5.61-1.385-8.59c-.101-2.978 1.144-9.986 2.651-10.43 1.506-.446 9.198 2.645 11.71 3.845 6.302 3.01 8.519 13.17 8.519 13.17l-4.724 5.623-16.771-3.618z" fill="#C0242D"/><path d="M139.034 84.877s2.608-12.805 5.856-16.4c3.248-3.596 5.896-6.343 7.358-6.602 1.462-.258 7.001 7.7 7.145 13.053.144 5.352-4.555 20.243-4.555 20.243l-11.276 4.528-4.528-14.822z" fill="#7F2829"/><path d="M127.03 83.132s.532-5.032 1.7-8.087c1.039-2.718 2.314-8.142 3.688-8.028 1.374.117 8.23 5.025 10.363 10.436 1.946 4.936 6.324 17.398.78 22.244-3.007 2.629-3.292 3.783-9.111 1.276-5.818-2.503-6.105-15.77-7.42-17.841z" fill="#DA3C2B"/><path d="M144.866 90.735c-.594-3.022 7.359-11.724 11.133-15.002 3.774-3.28 11.218-5.132 12.797-4.183 1.579.95 3.037 10.937.797 15.353-2.238 4.417-15.901 18.253-20.843 17.129-4.942-1.125-3.52-11.44-3.884-13.297z" fill="#DA3C2B"/><path d="M120.604 103.92s-.729-8.23-1.355-14.087c-.627-5.857-2.787-15.412-1.28-15.857 1.507-.445 9.269 2.307 14.62 7.66 5.349 5.356 11.409 35.875 11.409 35.875s-7.369.522-13.276-1.61c-5.908-2.132-7.313-8.583-10.118-11.981z" fill="#561324"/><path d="M139.384 102.066s11.082-13.012 16.494-14.737c5.41-1.724 19.975-4.913 21.218-4.235 1.243.676-6.41 14.5-10.024 18.801-3.614 4.3-7.065 7.062-7.065 7.062s-10.972 9.827-19.965 7.19c-3.556-1.042-.658-14.081-.658-14.081z" fill="#561324"/><path d="M121.428 79.053c.457.734.813 1.525 1.272 2.26.329.528 1.157.02.828-.508-.457-.735-.814-1.525-1.272-2.26-.331-.53-1.157-.02-.828.508zm5.599 3.44c.469.728 1.043 1.403 1.409 2.192.11.237.332.401.61.316.23-.07.432-.363.321-.6-.404-.871-.995-1.61-1.513-2.415-.337-.524-1.164-.015-.827.507zm-5.589 3.635c-.058 1.261.348 2.43 1.125 3.43.378.487 1.209-.016.827-.509-.687-.883-1.029-1.844-.978-2.96.029-.62-.945-.576-.974.04zm4.549 1.646c.351.571.599 1.225.627 1.897.026.617 1.002.578.975-.041-.035-.834-.337-1.654-.775-2.365-.327-.53-1.155-.02-.827.51zm-2.197 6.791c.653 1.041 1.204 2.14 1.855 3.18.33.53 1.156.02.827-.507-.652-1.04-1.203-2.14-1.855-3.18-.331-.529-1.158-.021-.827.507zm5.236 2.819c.292.462.645.969.715 1.522.077.608 1.053.575.975-.04-.093-.735-.471-1.373-.863-1.991-.334-.524-1.161-.016-.827.51zm4.012 2.194c.322 1.069.25 2.174.182 3.273-.039.616.936.572.974-.039.076-1.187.123-2.365-.225-3.52-.179-.593-1.11-.309-.931.285zm-6.829 5.781c.653 1.04 1.204 2.139 1.855 3.18.33.529 1.156.019.827-.508-.652-1.04-1.203-2.139-1.855-3.18-.33-.527-1.158-.019-.827.508zm5.236 2.82c.292.462.645.969.715 1.522.077.609 1.053.576.975-.041-.093-.734-.471-1.372-.863-1.99-.334-.525-1.16-.016-.827.509zm4.012 2.192c.322 1.069.25 2.174.182 3.273-.039.617.936.573.974-.039.075-1.187.123-2.365-.225-3.519-.179-.592-1.11-.309-.931.285zm-.299-15.094c.364.832.562 1.66.548 2.568-.01.62.965.577.975-.041.016-.983-.197-1.914-.592-2.813-.246-.561-1.18-.283-.931.286zm-3.677-1.917c.275.413.662.785 1.044 1.101.481.398 1.15-.3.669-.698-.324-.269-.674-.594-.885-.912-.344-.519-1.171-.01-.828.508zm.959-6.208c.647.55.991 1.341 1.331 2.096.251.558 1.185.281.931-.285-.407-.904-.814-1.847-1.593-2.51-.474-.403-1.144.293-.669.699zm12.311 18.137c.204-.819.529-1.602 1.066-2.267.388-.483-.318-1.143-.71-.659-.647.802-1.059 1.719-1.305 2.711-.152.601.799.816.949.215zm3.758-6.697c.454-.999 1.352-1.585 2.198-2.238.491-.377-.02-1.196-.516-.814-.976.753-2.018 1.445-2.54 2.594-.256.563.601 1.022.858.458zm1.727 5.732c.941-.731 1.882-1.467 2.897-2.099.532-.332.016-1.146-.516-.814-1.015.632-1.956 1.368-2.897 2.099-.489.38.022 1.199.516.814zm.427 3.722c1.035-.271 1.943-.878 2.909-1.308.566-.252.283-1.173-.289-.917-.965.429-1.881 1.039-2.91 1.308-.608.159-.317 1.075.29.917zm8.442-.227c.917-1.041 2.189-1.693 3.218-2.618.467-.418-.249-1.073-.709-.658-1.029.926-2.298 1.572-3.218 2.617-.412.467.297 1.126.709.659zm-.028-4.144c.552-.637 1.26-1.118 1.813-1.755.408-.47-.3-1.129-.709-.659-.553.637-1.261 1.118-1.814 1.755-.407.47.302 1.13.71.659zm-1.811-5.929c.918-1.047 2.133-1.772 3.313-2.497.533-.329.017-1.143-.516-.814-1.247.765-2.536 1.545-3.504 2.652-.413.468.297 1.129.707.659zm-1.548-4.489c.564-.766 1.349-1.297 2.218-1.684.565-.251.284-1.171-.289-.917-1.018.452-1.974 1.04-2.638 1.942-.365.494.342 1.157.709.659zm7.553-3.503c.965-.726 2.099-1.132 3.187-1.638.569-.264.045-1.076-.516-.815-1.089.507-2.221.912-3.187 1.639-.497.374.016 1.19.516.814zm1.586 3.808c.555-.659 1.106-1.266 1.908-1.634.571-.26.046-1.072-.516-.814-.869.4-1.499 1.074-2.101 1.79-.4.474.308 1.136.709.658zm.429 5.517c1.104-.882 1.971-1.94 2.673-3.155.311-.54-.548-.994-.858-.458-.612 1.061-1.363 2.027-2.331 2.799-.485.385.027 1.204.516.814zm5.553-9.673c.668-.77 1.498-1.393 2.282-2.042.483-.398-.235-1.052-.709-.659-.786.65-1.614 1.272-2.282 2.043-.407.47.3 1.13.709.658z" fill="#C38E97"/><path d="M133.237 70.98c.544.652.889 1.427 1.096 2.24.154.6 1.085.315.932-.286a6.691 6.691 0 00-1.358-2.652c-.4-.48-1.063.226-.67.698zm-1.209 3.24c-.281 1.25-.403 2.605.265 3.758.312.54 1.138.028.828-.508-.531-.918-.363-2.05-.142-3.033.134-.605-.815-.822-.951-.217zm3.165 4.712c.213.868.444 1.725.804 2.547.246.563 1.18.285.931-.284-.359-.823-.589-1.68-.803-2.547-.147-.603-1.079-.315-.932.284zm2.7-2.635c.462.742.818 1.54 1.175 2.335.251.558 1.185.281.931-.285-.39-.868-.775-1.746-1.28-2.558-.327-.53-1.155-.02-.826.508zm3.381 6.58l.614 2.503c.147.602 1.078.315.931-.284l-.613-2.505c-.147-.6-1.079-.313-.932.286zm-2.48 2.668c.147 1.315.539 2.587.686 3.9.069.611 1.043.577.975-.04-.147-1.314-.539-2.586-.686-3.9-.067-.61-1.043-.576-.975.04zm2.733 7.125c-.034 1.056-.091 2.114.057 3.164.086.607 1.061.574.975-.04-.149-1.053-.091-2.11-.058-3.166.021-.618-.954-.575-.974.041zm5.509-2.295a25.18 25.18 0 012.003-2.776c.398-.477-.311-1.137-.709-.66-.788.946-1.5 1.938-2.152 2.979-.331.528.529.98.858.457zm5.576-3.833c.944-.745 1.806-1.585 2.75-2.33.486-.382-.026-1.201-.516-.815-.945.746-1.806 1.585-2.75 2.33-.484.382.026 1.202.516.815zm2.366-5.473c.753-.766 1.506-1.528 2.419-2.109.529-.334.013-1.149-.516-.814-.984.623-1.803 1.44-2.612 2.264-.439.447.273 1.104.709.659zm4.313 2.951c.877-1.18 1.756-2.358 2.633-3.54.367-.493-.339-1.156-.71-.658l-2.633 3.54c-.367.493.339 1.156.71.658zm3.278-6.07c.585-.81 1.296-1.527 2.062-2.172.479-.402-.237-1.056-.71-.659a13.26 13.26 0 00-2.21 2.373c-.364.505.499.954.858.458zm3.995-1.587c-.131 1.344-.425 2.657-.732 3.972-.142.603.809.819.951.217.308-1.315.601-2.628.733-3.972.058-.607-.891-.832-.952-.217zm-1.932 5.668c-.116.498-.235.997-.351 1.497-.143.604.808.819.95.217l.352-1.497c.14-.604-.81-.82-.951-.217zm3.407-.012l-.088.374a.483.483 0 00.366.575.491.491 0 00.584-.36c.029-.124.06-.25.088-.374a.483.483 0 00-.366-.575.493.493 0 00-.584.36z" fill="#D7665B"/><path d="M152.122 65.393c-.256 1.084-.515 2.168-.935 3.203-.232.57.625 1.03.858.457.454-1.117.751-2.273 1.027-3.443.142-.603-.808-.82-.95-.217zm-2.836 2.77c-.772 1.389-1.467 2.818-2.196 4.23-.284.552.574 1.01.858.457.729-1.41 1.422-2.84 2.196-4.229.303-.544-.556-1-.858-.457zm-4.684 5.371c-.252 1.132-.349 2.286-.188 3.437.085.607 1.061.574.975-.039-.151-1.072-.071-2.126.164-3.18.134-.606-.816-.823-.951-.218zm2.367 5.268c-.218.924-.398 1.84-.438 2.789-.026.618.949.575.975-.04.035-.863.215-1.695.412-2.532.144-.604-.807-.821-.949-.218zm3.321-4.762c-.265 1.19-.377 2.408-.645 3.598-.136.604.815.82.951.217.266-1.19.38-2.407.645-3.597.134-.606-.816-.823-.951-.217zm3.075-1.928c.081.746.252 1.478.276 2.23.021.619.995.58.975-.04-.024-.753-.197-1.484-.277-2.231-.067-.61-1.041-.576-.974.04zm1.085-4.068c.624.755 1.086 1.665 1.255 2.63.106.601 1.082.57.975-.04a6.638 6.638 0 00-1.403-3.098c-.393-.475-1.225.029-.827.508zm-30.304-5.584c.973.425 1.388 1.364 1.499 2.36.067.613 1.041.578.974-.038-.143-1.312-.72-2.602-2.008-3.165-.574-.252-1.04.59-.465.842zm-.141 3.367c.088 1.453.347 2.882.854 4.253.214.579 1.147.299.931-.284-.479-1.296-.727-2.632-.81-4.008-.037-.618-1.011-.58-.975.04zm2.881 3.63c.42.69.606 1.475.796 2.249.147.602 1.078.314.931-.285-.211-.857-.434-1.709-.899-2.471-.325-.532-1.152-.024-.828.507zm-2.444 3.583c.538.823 1.268 1.647 2.11 2.181.529.337.989-.51.465-.844-.695-.442-1.305-1.17-1.748-1.847-.34-.52-1.168-.011-.827.51zm3.475-8.738c1.072.439 2.134.884 3.266 1.154.612.146.83-.79.22-.935-1.046-.252-2.027-.657-3.021-1.065-.575-.234-1.045.609-.465.846zm6.755 1.931c.804.398 1.671.728 2.382 1.28.491.382 1.164-.315.67-.698-.785-.61-1.702-.988-2.588-1.427-.561-.278-1.026.566-.464.845zm4.349 3.009a9.21 9.21 0 00.532 2.21c.216.578 1.149.296.932-.285a8.08 8.08 0 01-.489-1.964c-.065-.612-1.042-.577-.975.04zm2.923-1.435c.421-1.745.998-3.448 1.42-5.193.145-.603-.805-.818-.951-.217-.421 1.745-.998 3.448-1.42 5.193-.145.602.805.819.951.217zm4.344-3.149c.323-1.309.791-2.576 1.114-3.886.148-.602-.802-.817-.951-.216-.323 1.308-.791 2.575-1.114 3.885-.148.602.802.817.951.217zm-5.907-2.132c.256-1.038.687-1.868 1.534-2.555.486-.395-.232-1.047-.709-.66-.97.789-1.482 1.812-1.774 3-.149.6.802.815.949.215zm4.755-4.041c.32-1.245.963-2.335 1.593-3.448.307-.543-.553-.997-.858-.458-.673 1.19-1.344 2.359-1.686 3.689-.155.6.796.816.951.217zm2.277-2.583c.385.856.768 1.724.928 2.655.104.6 1.08.57.975-.04-.176-1.021-.547-1.955-.972-2.898-.25-.562-1.187-.285-.931.283zm3.486 4.241a2.027 2.027 0 01.088.147c.042.072-.048-.117-.022-.047.012.045.008.018-.013-.08.005.039-.014.11.009-.068-.004.034-.014.069-.022.104a.484.484 0 00.366.575.493.493 0 00.585-.36.944.944 0 00.014-.43c-.025-.125-.108-.243-.177-.35a.499.499 0 00-.673-.153.482.482 0 00-.155.662zm8.75 7.014a10.248 10.248 0 012.799-2.022c.564-.275.042-1.086-.516-.814-1.125.547-2.117 1.297-2.993 2.178-.442.443.27 1.099.71.658zm1.783 2.849c.65-.987 1.697-1.627 2.623-2.338.491-.377-.02-1.195-.516-.814-1.069.822-2.214 1.555-2.964 2.695-.343.522.518.973.857.457zm6.084-4.803c.671-.898 1.663-1.483 2.609-2.064.534-.329.018-1.143-.516-.815-1.01.621-2.086 1.263-2.802 2.22-.369.494.337 1.157.709.659zm-.032 3.541c.585-.68 1.274-1.263 1.858-1.942.406-.472-.303-1.13-.709-.659-.585.68-1.273 1.263-1.858 1.942-.406.47.303 1.13.709.659z" fill="#D1BFA8"/><path d="M73.089 85.543c-.075-5.166-.511-10.856.156-16.186.314-2.497.85-4.935 1.513-7.363.526-1.921 2.026-4.03 1.915-6.017-2.915 1.269-5.241 3.113-6.885 5.912-.839 1.43-2.256 3.297-2.854 4.982.978-4.317.657-9.796.9-14.155.247-4.45 1.37-9.33.244-13.553-1.973 3.26-3.783 6.953-4.852 10.648-2.037-4.492-3.694-9.102-6.176-13.56-1.58-2.839-3.294-5.584-4.77-8.5-.907-1.79-1.878-4.21-3.538-5.368 1.165 5.3-1.398 12.433-1.64 17.878-.124 2.805-.228 5.69-.098 8.485.1 2.2 1.032 4.912.634 7.066-3.961-1.221-8.772-3.13-13.01-2.614 5.016 7.197 15.512 12.966 17.432 21.964-4.69-1.443-10.086-3.5-14.936-3.73 3.688 2.529 6.511 7.488 9.458 10.822 2.855 3.234 4.81 6.664 6.808 10.215-4.394.327-10.744-2.65-14.705-.86 6.844 5.189 13.06 9.888 18.543 16.737 4.95 6.185 11.827 22.466 14.456 29.753l10.08-8.315c-.006.025-.274-4.121-.384-5.558-.222-2.885-.464-5.67-.534-8.531-.137-5.599-.037-11.258.168-16.812.275-7.458.901-16.68 3.708-23.569-4.865 2.439-7.466 7.483-11.633 10.23z" fill="#EE4226"/><path d="M48.742 22.381s3.413 8.125 3.84 17.34c.43 9.214 5.488 27.15 5.488 27.15s.962-3.696 2.82-9.207c1.858-5.512 2.95-9.771 2.95-9.771s-3.422-9.283-7.614-15.182a643.593 643.593 0 00-7.484-10.33zM62.71 71.329l4.724-5.945s.964-3.697 1.039-9.838c.077-6.143-.393-16.383-.393-16.383s-1.57 10.739-2.537 16.566c-.967 5.826-2.833 15.6-2.833 15.6zm3.953 29.654s-1.017-1.882 1.607-7.582c2.624-5.697 3.376-.558 4.731-9.14 1.355-8.585 3.67-28.284 3.67-28.284s-4.709 5.907-6.949 12.045c-2.241 6.137-3.06 32.961-3.06 32.961zm8.343 32.042s-5.715-8.722-5.062-16.868c.654-8.148 3.15-14.347 5.517-19.984 2.37-5.636 9.261-20.862 9.261-20.862s-.949 5.523-1.668 14.485-.426 21.936-2.222 28.765c-1.798 6.826-5.826 14.464-5.826 14.464z" fill="#C1222D"/><path d="M44.503 75.841c1.275 1.552 2.953 2.733 4.451 4.061.625.555 1.573-.341.941-.9-1.498-1.33-3.174-2.512-4.45-4.062-.533-.648-1.471.256-.942.901zm9.043 2.542c1.438 1.109 2.097 3.145 2.983 4.659.424.72 1.57.09 1.146-.634-1.034-1.762-1.775-3.84-3.451-5.132-.665-.512-1.336.6-.678 1.107zm-.586 6.95c1.045 1.995 1.745 4.18 3.19 5.947.53.65 1.468-.256.94-.9-1.36-1.664-2.002-3.802-2.986-5.681-.388-.74-1.532-.105-1.144.634zm7.013 6.454c.36 1.39.81 2.784 1.415 4.09.352.759 1.496.122 1.146-.633-.558-1.201-.956-2.492-1.286-3.769-.21-.806-1.485-.495-1.275.312zm4.208-5.483c.448-2.228 1.232-4.367 1.967-6.514.272-.792-.99-1.15-1.26-.364-.736 2.147-1.52 4.286-1.968 6.514-.162.813 1.097 1.182 1.261.364zm-2.347-6.748c.986-1.427 1.384-3.146 2.26-4.633.424-.72-.7-1.389-1.125-.667-.876 1.488-1.276 3.208-2.26 4.634-.476.691.65 1.355 1.125.666zM42.04 57.761c1.386.809 2.872 1.44 4.198 2.348.697.476 1.37-.632.678-1.107-1.327-.909-2.813-1.54-4.2-2.347-.728-.425-1.407.682-.677 1.106zm8.178 5.681c1.083 1.402 1.953 2.953 2.862 4.468.43.716 1.577.087 1.145-.633-.968-1.615-1.909-3.24-3.064-4.736-.513-.663-1.45.244-.943.901zm2.18-5.305c.292 1.115.719 2.189 1.013 3.304.21.806 1.486.496 1.275-.312-.293-1.114-.721-2.188-1.013-3.303-.213-.807-1.488-.497-1.275.311zm-1.555-8.674c-.427-1.959.014-3.968-.412-5.934-.178-.816-1.451-.501-1.275.312.426 1.959-.015 3.968.412 5.933.177.816 1.452.502 1.275-.31zm-.048-8.685c.014-1.327.217-2.608.577-3.887.225-.803-1.036-1.168-1.26-.364a16.185 16.185 0 00-.63 4.216c-.01.835 1.303.867 1.313.035zM61.29 66.953c.504-1.766 1.245-3.454 1.75-5.22.23-.803-1.03-1.167-1.26-.365-.505 1.766-1.247 3.455-1.752 5.22-.228.804 1.033 1.167 1.261.365zm-15.673 27.92c1.324.914 2.933 1.338 4.326 2.14.73.421 1.41-.685.678-1.107-1.393-.802-3.002-1.226-4.327-2.14-.695-.48-1.368.63-.677 1.107zm10.81 6.102c1.775 1.986 3.006 4.358 4.47 6.56.461.691 1.61.066 1.145-.634-1.528-2.297-2.822-4.756-4.675-6.828-.558-.625-1.497.278-.94.902zm.205-4.646c.514 1.115 1.292 2.093 2.091 3.022.548.637 1.486-.267.941-.901-.73-.85-1.419-1.736-1.887-2.753-.35-.76-1.494-.121-1.145.632zm7.48 6.163c.643 2.628 1.01 5.311 1.81 7.901.247.794 1.522.487 1.276-.311-.8-2.59-1.168-5.274-1.81-7.901-.199-.81-1.474-.498-1.276.311zm6.838-3.639c.976-2.277 2.498-4.274 3.682-6.444.4-.732-.724-1.402-1.125-.666-1.238 2.272-2.794 4.361-3.817 6.746-.33.767.935 1.121 1.26.364z" fill="#FBF9F7"/><path d="M33.736 92.5l52.71 34.715 19.011 12.172 18.377-11.581 53.082-35.073 3.173-5.78.155 81.334-1.337 2.147-4.185 3.802-2.345 1.159-133.118.243-3.19-1.477-3.861-3.458-1.18-2.473-.15-80.014 2.858 4.285z" fill="#fff"/><path d="M101.758 111.209c-1.528 1.325-2.282 3.401-2.207 5.377.078 2.094 1.199 3.855 3.1 4.786.776.381 1.596.665 2.341 1.105.786.466 1.182 1.146 1.348 2.022.361 1.922-1.481 3.909-2.911 4.981-.361.271-.551.701-.299 1.124.21.351.78.566 1.143.294 1.657-1.242 3.304-3.033 3.705-5.106.415-2.15-.765-4.06-2.668-5.019-.822-.414-1.696-.712-2.49-1.179-.792-.464-1.252-1.316-1.476-2.17-.465-1.777.206-3.849 1.595-5.055.808-.701-.378-1.858-1.181-1.16z" fill="#706264"/><path d="M82.286 112.501c.32-.943 1.54-1.383 2.419-1.628a6.027 6.027 0 013.294-.004c1.967.571 2.848 2.617 3.605 4.304.946 2.107 1.861 4.152 3.946 5.393 2.057 1.223 4.639 1.364 6.935.844 5.541-1.255 8.518-6.747 12.129-10.526 1.575-1.65 3.364-3.164 5.16-4.576 1.849-1.452 3.928-2.918 6.233-3.551.863-.238 1.745-.265 2.606-.013.246.072.403.157.55.307.147.147-.091-.14.021.028.025.038.105.217.022.016.022.055.037.113.053.169.033.134-.003-.154.006.085.003.065-.001.129-.006.194-.015.221.033-.176-.01.052a3.083 3.083 0 01-.12.427c-.089.263-.236.547-.433.885-.405.705-.899 1.365-1.402 2.004-.972 1.231-2.124 2.399-2.902 3.765-.761 1.333-.227 2.756.5 3.983.845 1.424 1.975 2.666 2.804 4.102.186.32.293.547.382.794.144.401.145.412.131.761-.01.218.037-.173-.006.04-.013.065-.034.126-.055.188.058-.172-.091.149-.139.217.12-.167-.255.217-.14.13a3.29 3.29 0 01-.563.327c-.917.443-2.077.588-3.087.59a3.96 3.96 0 01-1.161-.164 2.724 2.724 0 01-.778-.402c-1.016-.834-1.275-2.352-1.624-3.723-.295-1.165-.636-2.364-1.327-3.368-1.204-1.744-3.317-2.304-5.348-1.837-1.048.243-.604 1.826.444 1.585 1.211-.28 2.47-.058 3.315.893.413.464.711 1.168.922 1.802.496 1.489.694 3.064 1.411 4.479.81 1.599 2.382 2.346 4.148 2.376 1.737.03 4.463-.399 5.378-2.093.753-1.389-.129-2.971-.904-4.144-.905-1.369-2.031-2.616-2.745-4.1a3.718 3.718 0 01-.259-.793c-.05-.237.013.165-.011-.071a2.135 2.135 0 01-.008-.212c0-.033.022-.262-.007-.057.012-.075.029-.147.052-.22.052-.179-.066.106.062-.146a4.51 4.51 0 01.195-.336c.182-.293.391-.571.601-.846.971-1.274 2.204-2.637 3.154-4.038.778-1.149 1.658-2.721.929-4.092-.856-1.61-3.475-1.519-4.969-1.159-2.377.572-4.529 2.058-6.439 3.504a58.773 58.773 0 00-5.231 4.492c-2.05 1.972-3.692 4.312-5.6 6.411-1.714 1.886-3.697 3.594-6.236 4.246-2.144.55-4.525.285-6.343-1.009-.908-.645-1.43-1.601-1.92-2.561-.487-.955-.885-1.952-1.351-2.917-1.029-2.129-2.595-3.879-5.08-4.223-2.393-.332-5.943.431-6.81 2.981-.346 1.006 1.268 1.434 1.607.435z" fill="#706264"/><path d="M91.532 123.106c.505-2.38.511-4.838-.419-7.12-.82-2.015-2.257-3.689-3.847-5.162-1.745-1.618-3.683-3.022-5.524-4.531-1.086-.892-2.165-1.809-3.098-2.859-.74-.833-1.388-1.843-1.348-2.986.038-1.113.861-2.114 1.575-2.903.833-.92 1.8-1.706 2.696-2.562 1.59-1.519 3.112-3.23 3.978-5.259.379-.888.529-1.854.35-2.805-.192-1.012-.903-1.81-1.713-2.41-1.65-1.225-4.1-1.71-6.124-1.447-1.836.238-3.413 1.258-3.608 3.183-.117 1.146.37 2.336.866 3.342a6.961 6.961 0 002.074 2.48c1.591 1.196 3.694 1.438 5.613 1.707 2.157.302 4.432.692 6.155 2.115 1.84 1.52 1.701 3.833 1.11 5.912-.625 2.199-1.729 4.235-2.363 6.432-.495 1.713-.403 3.511-.391 5.273.01 1.676.059 3.575-.802 5.083-.982 1.717-3.276 1.936-5.035 1.475-2.245-.59-4.028-2.307-5.9-3.569-.956-.646-1.98-1.197-3.09-1.536-1.234-.376-2.535-.356-3.797-.151-2.81.456-5.332 2.097-7.489 3.842-2.165 1.752-4.026 3.801-5.738 5.977-1.735 2.207-3.45 4.462-5.688 6.207-1.08.843-2.294 1.483-3.58 1.961-.933.345-2.29.828-3.185.144-.94-.717-.594-2.078-.28-3.03.336-1.022.91-1.916 1.848-2.482 1.949-1.178 4.697-.179 6.557.693a19.007 19.007 0 013.012 1.783c.949.682 1.76 1.53 2.636 2.297 1.96 1.717 4.122 3.236 6.655 4 2.72.821 5.616.552 8.297-.27 5.412-1.661 9.715-5.513 14.597-8.186 2.733-1.495 5.593-2.559 8.761-2.43 1.49.061 2.958.377 4.394.753 1.491.39 2.951.981 4.467 1.259 2.447.45 4.741-.454 6.414-2.217 1.441-1.517 3.144-4.16 2.154-6.297-.836-1.801-3.196-2.188-4.982-2.305-2.833-.183-5.639.611-8.468.309-2.2-.235-4.543-1.544-4.811-3.879-.222-1.915.717-3.895 2.106-5.196.52-.488-.267-1.261-.788-.776-1.61 1.508-2.63 3.768-2.432 5.972.235 2.61 2.437 4.236 4.893 4.808 2.858.665 5.812-.192 8.695-.17 1.553.011 4.306.142 4.873 1.94.342 1.084-.28 2.315-.825 3.217-.634 1.053-1.455 2.02-2.491 2.711-.976.651-2.105.941-3.278.907-1.475-.043-2.927-.689-4.329-1.09-2.858-.819-5.77-1.331-8.74-.839-2.941.489-5.69 2.02-8.191 3.556-4.752 2.917-9.255 6.626-14.952 7.509-2.761.428-5.511-.204-7.898-1.591-1.152-.67-2.202-1.495-3.207-2.36-.904-.778-1.735-1.637-2.689-2.357-1.87-1.412-4.055-2.561-6.356-3.102-2.07-.487-4.485-.292-5.893 1.466-1.249 1.561-2.312 4.625-.532 6.171.887.769 2.11.731 3.19.476 1.217-.288 2.417-.828 3.492-1.448 2.451-1.415 4.346-3.564 6.083-5.737 1.729-2.162 3.398-4.307 5.43-6.209 2.09-1.957 4.508-3.764 7.29-4.627 1.262-.392 2.638-.554 3.942-.289 1.139.229 2.17.787 3.133 1.408 1.95 1.258 3.66 2.862 5.88 3.67 1.923.701 4.346.586 5.951-.766 1.343-1.13 1.659-3.025 1.77-4.66.124-1.828-.06-3.666.102-5.493.178-2.024 1.184-3.936 1.914-5.804.797-2.04 1.564-4.317 1.016-6.513-.564-2.263-2.734-3.607-4.846-4.297-1.977-.647-4.084-.689-6.102-1.143-.94-.213-1.828-.544-2.62-1.09-.911-.629-1.522-1.586-1.966-2.57-.42-.933-.732-2.024-.356-3.018.268-.709 1.04-1.107 1.73-1.31 1.913-.558 4.276-.036 5.925.999.83.52 1.433 1.317 1.486 2.302.053.964-.376 1.902-.845 2.721-1.07 1.863-2.677 3.428-4.28 4.85-1.686 1.496-3.883 3.529-3.518 6.002.173 1.17.874 2.163 1.633 3.044.914 1.061 2.017 1.968 3.099 2.858 1.837 1.514 3.769 2.92 5.523 4.53 1.452 1.332 2.793 2.855 3.561 4.677.88 2.084.88 4.357.42 6.538-.151.69.921.982 1.068.292z" fill="#706264"/><path d="M81.234 78.118c.131 1.314-.24 2.457-.115 3.789.142 1.508.353 2.688 1.859 3.342.886.386 2.896.107 2.553 1.669-.745 3.375-6.428-4.604-6.353.095.054 3.371 4.049 3.701 6.402 4.006 1.302.169 2.319.585 3.458 1.236-.74 2.904-6.946-1.695-8.55-1.57-2.06.158-1.23 2.051-.292 3.14 1.045 1.213 2.748 2.135 4.263 2.553 2.313.638 4.935-.071 7.148 1.047 1.847.932 1.293 1.93-.537 2.09-1.604.14-3.125-.66-4.598-1.059-1.422-.385-6.93-2.825-6.06.154.618 2.12 3.901 3.28 5.748 3.802 3.6 1.017 9.338 3.245 12.54.109l.072.221c5.44.907 9.233-5.98 7.269-10.678-.589-1.41-1.749-6.308-3.77-3.82-.972 1.197.118 2.875-.807 4.03-1.392 1.734-2.108-.212-1.943-1.586.296-2.46 2.445-5.055 1.769-7.615-.999-3.775-3.685-1.144-4.455 1.28-.34 1.07.072 3.769-1.505 3.876-2.234.152-1.452-2.995-1.091-4.035.433-1.248 3.441-9.707-1.141-8.263-2.378.748-1.104 3.962-1.558 5.56-.27.953-1.18 2.062-2.24 1.037-.866-.84.02-2.444.048-3.288.027-.841-.082-1.445-.628-2.12-.751-.925-1.39-.589-2.274-.691-2.144-.248-3.587-.525-5.394-1.752-.605 1.038.07 2.32.182 3.44zM61.15 104.475c.927.964 11.97 2.742 9.02 5.577-1.322 1.269-3.536-.829-4.508-1.414-1.522-.918-3.235-1.462-5.036-1.427-1.933.037-4.362.364-5.92 1.588-1.794 1.408-2.245 3.08.141 3.435 1.86.277 3.825-.516 5.672-.093 2.605.598 2.878 2.165.064 2.038-3.675-.167-6.67-.357-9.877 2.322-1.27 1.058-2.062 2.368-.053 2.931 1.558.437 3.34-1.118 4.956-.876 1.002.149 1.758.093 1.74 1.344-.02 1.444-.605.741-1.607 1.101-2.004.717-2.975.917-4.175 2.888-1.028 1.687-1.344 3.127-.775 5.017.83 2.753 1.602 4.184 1.574 6.981 2.947-1.508 4.425.943 7.186 1.596 4.942 1.166 3.789-4.129 4.474-6.854.73-2.9 1.61-1.633 1.858.519.192 1.661.149 3.432.53 5.057.995 4.227 4.481.652 4.852-2.052.227-1.657-2.375-9.835 1.157-9.298 2.76.419.674 7.939 1.586 9.969.754 1.678 2.437 1.329 3.696-.193 1.142-1.382.65-3.132.412-4.786-.26-1.805-2.617-9.27 1.198-8.431 3.445.758 1.99 7.299 1.812 9.517 1.84.062 3.924.518 5.072-1.256.837-1.295.278-4.21.353-5.769.088-1.839.584-4.086.532-5.762-.066-2.091-1.81-3.275-2.544-4.391l-1.062-.354c-.342-.19-2.657-.597-3.206-1.211-.858-.962-.335-2.471-.655-3.715-.651-2.541-2.604-4.674-5.047-5.685-2.528-1.046-5.584-1.381-8.232-1.623-1.6-.151-8.09.291-5.188 3.31zm87.356-11.993c1.712.132 5.592.648 5.256-2.37-.215-1.932-3.307-3.14-2.264-5.512-.99.256-1.665.788-2.804.848-1.107.058-1.987-.228-3.013-.397-1.93-.314-4.549-.622-5.321 1.549-.371 1.044.294 5.251-2.253 4.034-2.491-1.19.946-3.76.713-5.128-2.582-.984-4.383 2.066-4.568 4.174-.115 1.302.495 2.481-.932 2.98-1.816.635-1.848-.985-1.682-2.27.126-.988 1.072-2.867-.438-3.41-1.337-.48-2.499 1.535-2.957 2.483-1.212 2.502-.304 4.805-.374 7.385-2.87.827-1.697-4.322-1.919-5.358-.738-3.432-3.509 1.65-3.795 2.87-.492 2.108-.526 5.276.535 7.222.577 1.06 4.426 3.698 5.02 2.525l-.643 1.164c-.28 2.803 4.716 3.075 6.578 3.15 2.849.114 5.057-.13 7.493-1.46 4.527-2.473-3.269-1.294-4.033-2.39-2.026-2.912 5.326-.675 5.957-.599 3.464.413 5.019-3.492 1.259-4.141-.989-.172-3.621.284-2.871-1.384.545-1.21 3.604-1.102 4.659-.92 1.36.236 2.812 1.401 4.229.425 1.41-.972.999-2.52-.279-3.21-.949-.512-2.943-.193-3.702-1.03-1.311-1.444 1.048-1.315 2.149-1.23z" fill="#51B8A9"/><path d="M82.945 78.566c-1.845.516-3.406 2.141-5.11 2.647-.237-1.812 2.866-2.253 3.323-3.92.616-2.255-1.883-3.048-3.527-2.016-.952.597-2.396 3.899-3.655 3.83-1.427-.079.479-3.632.3-4.747-2.258-.564-1.31 3.184-3.456 3.07-.113-2.256-.372-4.196-3.197-4.045-1.855.1-4.46 2.154-6.01 1.113l.5.658c.047.303.505 1.875.5 2.957-.002 1.014-.103 3.003 1.207 3.416 1.047.33 2.735-2.047 3.435-1.083 1.03 1.418-2.272 1.995-2.804 2.231-1.19.528-1.947 1.687-.13 2.304 1.508.51 2.517-.862 3.682-1.404 1.154-.537 2.887-.398 1.962 1.281-.615 1.116-2.537 1-3.51 1.43-2.9 1.284-1.01 3.692 1.502 3.491 2.128-.171 2.579-3.078 4.817-3.26.072.29.177 1.012.166 1.248-.821.802-1.042 1.894-2.011 2.629-.999.756-2.477.888-2.634 2.336-.274 2.556 4.243 2.666 5.634 1.118 1.895-2.112 1.721-4.96 2.546-7.355.72-2.093 5.258-1.955 7.049-4.076 1.304-1.545 2.189-4.625-.579-3.853zm-45.913 45.935c.775 1.728 2.628 3.022 3.373 4.611-1.791.483-2.666-2.479-4.407-2.693-2.355-.289-2.806 2.258-1.54 3.717.733.846 4.256 1.795 4.362 3.031.12 1.403-3.722.036-4.82.367-.253 2.278 3.386.834 3.57 2.941-2.254.423-4.172.945-3.627 3.676.358 1.794 2.787 4.047 1.954 5.703l.592-.579c.298-.086 1.818-.751 2.906-.898 1.02-.136 3.037-.316 3.27-1.649.187-1.066-2.44-2.382-1.565-3.196 1.284-1.2 2.323 1.938 2.633 2.423.696 1.086 1.968 1.665 2.336-.194.305-1.539-1.216-2.333-1.924-3.393-.7-1.048-.8-2.759 1.018-2.089 1.21.445 1.358 2.334 1.927 3.221 1.693 2.648 3.855.472 3.304-1.948-.467-2.05-3.456-2.086-3.95-4.242.281-.111.992-.313 1.232-.335.922.689 2.052.753 2.926 1.596.9.868 1.236 2.291 2.716 2.241 2.61-.087 2.095-4.505.343-5.645-2.387-1.553-5.23-.989-7.755-1.46-2.207-.412-2.696-4.852-5.078-6.305-1.734-1.057-4.958-1.491-3.796 1.099zm82.778-18.941c-1.97-.146-3.972 1.497-6.038.435-1.571-.806-1.266-2.032.308-2.751 2.783-1.27 6.327 2.167 7.784-1.667 1.903-5.006-4.866-.451-5.921-3.58 1.23-1.657 4.741-.025 6.621-1.017 1.806-.951 3.622-5.111 1.515-6.448-.788 1.249-2.633 2.178-3.918 1.11-1.288-1.07.193-2.43-.449-4.086-1.022-2.63-3.727-4.306-3.063-7.435-1.024 2.177-7.473.498-9.278 1.32-3.929 1.79.637 4 1.24 5.977-2.486 1.36-4.274-3.337-6.315-2.964-2.142.392-.636 4.855.561 6.141 1.235 1.329 5.238 4.278 1.181 4.261-2.595-.011-3.937-2.363-4.578-4.48-1.856 1.716-2.532 1.55-2.094 4.383.273 1.768 1.29 2.988 1.727 4.693.284 1.107-.026 3.819-1.794 3.548-1.85-.283-1.164-3.347-.745-4.459-4.122-2.944-5.059 2.675-4.723 5.785.231 2.151 1.33 3.866 2.877 5.383 1.248 1.223 3.845 1.406 4.692 2.609l2.719.075c4.046 5.432 11.844 2.817 16.457-.421 1.703-1.195 5.327-6.105 1.234-6.412zm-3.028-25.945a5.246 5.246 0 00-.131.506c.07-.15.115-.318.131-.506z" fill="#009685"/><path d="M102.459 110.146c.206-2.119 1.504-3.954 2.779-5.602 1.324-1.71 2.956-3.33 3.945-5.267 1.11-2.176 2.379-4.314 2.86-6.732.425-2.135.166-4.396.923-6.475.122-.333-.417-.475-.537-.146-.754 2.07-.54 4.34-.923 6.475-.232 1.297-.753 2.532-1.32 3.718-.532 1.11-1.083 2.251-1.722 3.306-2.125 3.511-6.141 6.401-6.561 10.722-.035.353.523.35.556.001z" fill="#51B8A9"/><path d="M95.14 104.755c1.788 2.05 4.389 3.949 7.207 4.187.358.03.355-.517 0-.547-2.665-.225-5.132-2.096-6.814-4.027-.233-.269-.627.121-.393.387z" fill="#51B8A9"/><path d="M102.608 108.97c.594.868 1.844 1.171 2.817 1.384 1.55.339 3.16.435 4.744.435 1.485 0 3.002-.096 4.451-.434.727-.17 1.922-.478 2.029-1.36.043-.35-.514-.346-.556 0-.072.595-1.535.819-1.964.907-1.334.276-2.717.34-4.077.34-1.433 0-2.878-.099-4.284-.376-.848-.166-2.152-.404-2.679-1.173-.2-.289-.682-.015-.481.277zm5.99-8.416c2.775-.51 5.741-.986 8.532-.329.348.082.497-.446.149-.528-2.895-.68-5.95-.2-8.83.329-.351.066-.201.592.149.528zm-8.061-4.614c1.013 1.053 2.515 1.52 3.822 2.11 1.366.615 2.828 1.447 2.774 3.117-.011.354.545.352.556 0 .115-3.583-4.821-3.599-6.759-5.615-.246-.258-.639.13-.393.387zm10.732-.768c.71-1.407 2.755-1.447 4.131-1.447 1.498 0 2.981.258 4.477.268.359.001.359-.546 0-.547-1.67-.011-3.321-.302-4.995-.263-1.456.035-3.367.272-4.092 1.712-.161.316.32.593.479.277zm-6.493-7.133c.866 1.251 2.112 2.298 3.288 3.259a17.225 17.225 0 002.02 1.453c.406.243.944.563 1.443.515.353-.032.358-.581 0-.547-.435.041-.902-.284-1.251-.495-.681-.407-1.311-.898-1.923-1.398-1.099-.899-2.286-1.893-3.098-3.064-.199-.29-.682-.016-.479.277z" fill="#51B8A9"/><path d="M37.853 142.344c.022-2.374.944-4.642 2.135-6.672 1.123-1.917 2.57-3.698 4.294-5.126.275-.228-.121-.613-.393-.387-1.807 1.499-3.293 3.379-4.469 5.389-1.206 2.058-2.1 4.399-2.122 6.798-.004.352.552.351.555-.002z" fill="#D7665B"/><path d="M64.694 76.734c1.873-.347 3.603 1.596 4.683 2.827 1.258 1.434 2.288 3.031 3.35 4.605.199.293.68.019.482-.277-1.143-1.69-2.26-3.391-3.62-4.922-1.21-1.36-3.016-3.135-5.042-2.76-.355.065-.204.593.147.527z" fill="#51B8A9"/><path d="M57.876 128.453c1.22-7.847 10.383-10.175 16.232-13.799.304-.187.024-.662-.281-.474-5.984 3.706-15.241 6.101-16.487 14.127-.053.346.482.495.536.146zm70.95-25.134c2.799-7.163 11.152-8.819 16.622-13.35.274-.228-.122-.613-.393-.386-2.875 2.38-6.358 3.872-9.539 5.793-3.149 1.903-5.875 4.338-7.227 7.799-.129.33.409.471.537.144zm17.186 17.77c2.63.453 5.21 1.168 7.701 2.113 2.502.95 4.985 2.171 7.033 3.895.272.228.667-.158.393-.387-2.042-1.717-4.469-2.926-6.947-3.907a40.44 40.44 0 00-8.032-2.241c-.351-.063-.501.466-.148.527z" fill="#009685"/><path d="M82.348 124.515L33.736 92.501l-2.857-4.285.15 80.014 1.179 2.473 50.14-46.188zm4.098 2.7l19.011 12.172 18.377-11.581 50.888 46.43-2.345 1.159-133.118.244-3.19-1.478 50.377-46.946z" fill="#324C9A"/><path d="M101.272 152.471c1.232-1.539 1.272-6.176.484-7.85-1.278-2.72-4.01-3.729-5.595-6.019-.698-1.006-1.534-2.566.244-3.125 1.376-.433 3.421 1.44 4.322 2.247 1.165 1.042 2.1 2.259 2.718 3.683.468 1.076.673 3.26 2.315 3.115 4.445-.388 1.044-10.619-.035-12.408-2.187-3.626-6.415-6.451-10.44-7.475l-1.78-1.992c-4.659-4.138-10.633-8.531-17.029-4.203-1.436.972-5.875 3.771-5.261 5.557 1.192 3.467 5.352.178 7.332.033 3.606-.264 6.357 3.668 1.952 5.097-3.29 1.066-6.678.315-9.92 1.837-1.448.679-3.408 1.183-3.277 3.183.12 1.841 1.631 2.456 3.206 2.496 1.534.037 9.408-3.252 7.87.522-1.474 3.613-7.815 1.894-9.025 5.708-1.767 5.574 5.965.996 7.499 3.101-.953 1.262-2.686 1.655-3.456 3.091-.815 1.519-.734 3.791.116 5.25 1.729 2.963 5.835 3.893 6.978 7.392 1.65-1.533 4.18-2.46 5.747-4.15 1.874-2.022 1.312-3.811 1.379-6.204 2.962.174 1.048 6.303 4.967 4.15 2.27-1.246 1.558-5.781.83-7.719-.344-.916-2.092-2.862-.414-3.059 1.361-.158 2.615 2.147 3.203 3.123.898 1.492 2.432 7.915 5.07 4.619z" fill="#009685"/><path d="M128.934 124.435l47.982-31.702 3.173-5.78.155 81.334-1.337 2.147-49.973-45.999z" fill="#324C9A"/><path d="M147.045 127.227c-.578-1.74-4.232-4.174-5.967-4.44-2.82-.432-5.041 1.132-7.679 1.159-1.16.011-2.832-.158-2.349-1.807.372-1.276 2.919-1.869 4.026-2.14 1.434-.35 2.883-.434 4.332-.169 1.096.199 2.932 1.174 3.672-.156 2.003-3.601-7.871-6.303-9.849-6.406-4.011-.207-8.448 1.56-11.352 4.107l-2.504.329c-5.701 1.416-12.289 3.707-12.186 10.842.022 1.602-.069 6.446 1.665 6.904 3.366.885 2.924-4.001 3.839-5.589 1.667-2.895 6.214-2.961 5.054 1.149-.866 3.067-3.226 5.27-3.705 8.537-.215 1.459-.834 3.22.818 4.157 1.521.863 2.794.027 3.644-1.158.828-1.153 2.317-8.879 4.508-5.746 2.096 3-2.565 6.958-.171 9.862 3.495 4.24 3.89-4.046 6.356-4.126.504 1.384-.087 2.912.65 4.245.78 1.41 2.62 2.527 4.22 2.632 3.248.216 6.119-2.443 9.486-1.503-.355-2.056.225-4.471-.299-6.547-.627-2.481-2.338-2.978-4.199-4.27 1.679-2.175 5.539 2.467 5.872-1.648.193-2.38-3.769-4.188-5.685-4.635-.903-.211-3.356.117-2.638-1.269.581-1.122 3.06-.886 4.14-.83 1.655.085 7.541 2.242 6.301-1.484z" fill="#009685"/><path d="M120.637 120.141c1.205 2.267 2.512 4.481 4.07 6.534 1.5 1.978 3.282 3.684 5.071 5.404 1.735 1.665 3.464 3.343 5.027 5.17 1.411 1.651 2.812 3.529 3.333 5.661.084.343.62.199.537-.146-.496-2.02-1.75-3.787-3.047-5.388-1.52-1.874-3.26-3.571-4.998-5.245-1.788-1.722-3.6-3.404-5.145-5.347-1.703-2.143-3.089-4.513-4.367-6.918-.166-.315-.647-.038-.481.275z" fill="#51B8A9"/><path d="M111.714 127.205c1.665-3.473 6.485-5.424 10.203-4.309.344.103.491-.426.149-.529-3.937-1.18-9.065.874-10.832 4.561-.153.318.328.596.48.277z" fill="#51B8A9"/><path d="M122.483 122.869c.968-2.356 2.906-3.695 5.335-4.357 2.187-.597 4.488-.695 6.658-1.365.34-.105.195-.633-.149-.528-2.293.709-4.728.797-7.03 1.47-2.48.725-4.372 2.252-5.351 4.635-.134.327.404.467.537.145zm-4.87 14.356c1.065-2.022 1.756-4.215 2.765-6.264.897-1.817 2.185-3.979 4.414-4.287.354-.049.202-.577-.149-.529-2.235.31-3.605 2.355-4.559 4.173-1.126 2.148-1.823 4.486-2.952 6.63-.165.315.316.591.481.277zm7.883 5.611c-.089-2.081.102-4.196.625-6.216.444-1.719 1.284-3.931 3.178-4.525.34-.107.195-.635-.149-.529-1.976.621-2.916 2.703-3.456 4.513-.645 2.166-.851 4.509-.754 6.759.016.351.572.352.556-.002zm5.54-10.057c1.303-.808 3.077-.779 4.545-.549.933.146 1.851.428 2.713.802.361.157.694.365 1.063.501.164.062.335.107.505.154.094.027.366.156.313.049v-.277l-.006-.033c-.333.123-.189.653.148.529.144-.054.246-.096.339-.22.061-.082.041-.194 0-.277-.088-.179-.334-.217-.508-.264-.5-.135-.938-.338-1.405-.562-.95-.454-1.976-.753-3.015-.933-1.597-.279-3.556-.276-4.975.603-.302.192-.023.665.283.477zm-4.564-4.546c3.666-1.857 7.801-2.418 11.88-2.427.359 0 .359-.549 0-.547-4.18.007-8.406.6-12.161 2.501-.319.163-.038.635.281.473zm-43.756 22.466c-.13-2.253-.229-4.514-.02-6.765.222-2.381.898-4.668 1.92-6.833.948-2.003 2.259-3.825 3.692-5.519.545-.644 1.097-1.281 1.615-1.948.38-.49.895-1.077 1.007-1.706.048-.262-.363-.363-.41-.099-.117.654-.717 1.285-1.116 1.788-.551.695-1.141 1.36-1.708 2.042-1.433 1.727-2.704 3.593-3.63 5.632a20.983 20.983 0 00-1.779 6.511c-.243 2.295-.128 4.611.005 6.91.016.266.44.255.424-.013z" fill="#51B8A9"/><path d="M82.126 124.457c3.397-.293 6.704 3.402 5.825 6.69-.07.259.343.358.411.099.946-3.536-2.579-7.52-6.247-7.204-.27.023-.26.438.011.415z" fill="#51B8A9"/><path d="M88.522 131.367c.98-.582 2.095-1.139 3.256-1.217.754-.051 1.526.074 2.261.229.805.17 1.609.419 2.33.819.473.263 1.064.708.883 1.313-.076.258.334.356.41.099.472-1.578-2.17-2.308-3.244-2.57-.838-.205-1.721-.338-2.586-.307-1.254.046-2.48.659-3.534 1.283-.233.135-.01.489.224.351zm-2.854 3.97c1.796-.396 3.451.3 4.792 1.456.668.574 1.243 1.248 1.766 1.951.252.34.487.69.712 1.047.162.255.325.726.564.907.07.054.178.085.257.025l.007-.004c.075-.057.121-.143.09-.238-.076-.231-.322-.574-.571-.64-.264-.069-.363.335-.1.404.08.022.24.279.268.359l.09-.238c0 .002-.003.004-.006.005l.258.025c-.13-.097-.234-.399-.318-.539a16.067 16.067 0 00-.363-.572 16.922 16.922 0 00-.812-1.134 11.522 11.522 0 00-1.904-1.954c-1.387-1.102-3.087-1.648-4.853-1.258-.267.06-.14.456.123.398zm-2.2 4.812c1.424.111 2.763.805 3.847 1.689 1.057.86 1.985 2.06 2.178 3.428.037.262.46.253.422-.013-.41-2.907-3.592-5.299-6.46-5.52-.271-.019-.255.396.013.416zm-6.651.554c1.053-.412 2.096-.843 3.18-1.167.57-.17 1.154-.311 1.749-.352.4-.027.928-.014 1.142.379.13.236.487.016.36-.22-.516-.947-2.082-.541-2.895-.337-1.26.316-2.456.827-3.66 1.299-.252.099-.13.497.124.398zm-.973-7.338a16.46 16.46 0 015.395-1.369c1.76-.129 3.982.199 4.258 2.272.035.262.459.254.422-.013-.121-.909-.56-1.665-1.37-2.14-.85-.501-1.923-.582-2.891-.556-2.01.05-4.111.595-5.94 1.408-.244.109-.124.508.126.398z" fill="#51B8A9"/></g><defs><clipPath id="clip0_52_424"><path fill="#fff" d="M0 0h227v212H0z"/></clipPath></defs></svg>