<svg width="227" height="212" viewBox="0 0 227 212" fill="none" xmlns="http://www.w3.org/2000/svg">
<g clip-path="url(#clip0_52_424)">
<path d="M181.554 181.347C223.087 140.477 223.087 74.2144 181.554 33.3448C140.021 -7.52482 72.6826 -7.52482 31.1496 33.3448C-10.3835 74.2144 -10.3835 140.477 31.1496 181.347C72.6826 222.216 140.021 222.216 181.554 181.347Z" fill="#B2E0E7"/>
<path d="M33.3824 82.4367L37.8977 76.3254L107.531 28.4941L172.02 75.5833L177.063 82.1742L180.089 86.9522L180.244 168.287L178.907 170.434L174.722 174.236L172.377 175.395L39.259 175.639L36.0699 174.161L32.208 170.703L31.0289 168.23L30.8787 88.2163L33.3824 82.4367Z" fill="white"/>
<path d="M137.037 71.2217C137.037 71.2217 137.23 63.5821 138.226 61.0492C139.221 58.5179 143.939 51.8201 145.526 51.2824C149.006 50.1032 155.435 60.2364 156.137 62.3652C156.838 64.4956 157.258 72.0786 157.258 72.0786L146.584 75.7577L137.037 71.2217Z" fill="#C0242D"/>
<path d="M151.85 68.6809C151.85 68.6809 157.687 64.2943 161.021 62.8855C164.356 61.4768 170.381 59.6954 172.105 60.8762C173.831 62.057 174.15 66.6621 172.701 70.272C171.252 73.8835 165.413 85.9521 165.413 85.9521L151.85 68.6809Z" fill="#C0242D"/>
<path d="M122.075 78.6554C122.075 78.6554 120.791 73.0441 120.69 70.0646C120.589 67.0868 121.834 60.0792 123.341 59.6343C124.847 59.1893 132.539 62.2804 135.051 63.48C141.353 66.4893 143.57 76.6492 143.57 76.6492L138.846 82.2732L122.075 78.6554Z" fill="#C0242D"/>
<path d="M139.034 84.8769C139.034 84.8769 141.642 72.0724 144.89 68.4767C148.138 64.8809 150.786 62.1342 152.248 61.8748C153.71 61.6169 159.249 69.5757 159.393 74.9276C159.537 80.2796 154.838 95.1705 154.838 95.1705L143.562 99.6986L139.034 84.8769Z" fill="#7F2829"/>
<path d="M127.03 83.1315C127.03 83.1315 127.562 78.1003 128.73 75.0454C129.769 72.3269 131.044 66.9026 132.418 67.0174C133.792 67.1338 140.648 72.0424 142.781 77.4525C144.727 82.3894 149.105 94.8511 143.561 99.6968C140.554 102.326 140.269 103.48 134.45 100.973C128.632 98.4704 128.345 85.2037 127.03 83.1315Z" fill="#DA3C2B"/>
<path d="M144.866 90.735C144.272 87.7131 152.225 79.0107 155.999 75.7325C159.773 72.4528 167.217 70.6007 168.796 71.5503C170.375 72.5 171.833 82.4869 169.593 86.9034C167.355 91.3199 153.692 105.156 148.75 104.032C143.808 102.907 145.23 92.5918 144.866 90.735Z" fill="#DA3C2B"/>
<path d="M120.604 103.92C120.604 103.92 119.875 95.6892 119.249 89.8326C118.622 83.9759 116.462 74.4213 117.969 73.9763C119.476 73.5314 127.238 76.2828 132.589 81.6364C137.938 86.9915 143.998 117.511 143.998 117.511C143.998 117.511 136.629 118.033 130.722 115.901C124.814 113.769 123.409 107.318 120.604 103.92Z" fill="#561324"/>
<path d="M139.384 102.066C139.384 102.066 150.466 89.0542 155.878 87.3294C161.288 85.6047 175.853 82.4161 177.096 83.0938C178.339 83.7698 170.686 97.5947 167.072 101.895C163.458 106.195 160.007 108.957 160.007 108.957C160.007 108.957 149.035 118.784 140.042 116.147C136.486 115.105 139.384 102.066 139.384 102.066Z" fill="#561324"/>
<path d="M121.428 79.0532C121.885 79.7874 122.241 80.5783 122.7 81.3125C123.029 81.8408 123.857 81.3329 123.528 80.8047C123.071 80.0704 122.714 79.2796 122.256 78.5454C121.925 78.0155 121.099 78.5249 121.428 79.0532Z" fill="#C38E97"/>
<path d="M127.027 82.4933C127.496 83.2213 128.07 83.8958 128.436 84.6851C128.546 84.9225 128.768 85.086 129.046 85.0011C129.276 84.9303 129.478 84.6379 129.367 84.4005C128.963 83.5295 128.372 82.7905 127.854 81.9855C127.517 81.4619 126.69 81.9713 127.027 82.4933Z" fill="#C38E97"/>
<path d="M121.438 86.1283C121.38 87.3892 121.786 88.5574 122.563 89.5574C122.941 90.0448 123.772 89.5416 123.39 89.0495C122.703 88.1659 122.361 87.2053 122.412 86.089C122.441 85.4695 121.467 85.5135 121.438 86.1283Z" fill="#C38E97"/>
<path d="M125.987 87.7744C126.338 88.3452 126.586 88.9992 126.614 89.6706C126.64 90.2885 127.616 90.2492 127.589 89.6297C127.554 88.7964 127.252 87.9757 126.814 87.265C126.487 86.7352 125.659 87.2446 125.987 87.7744Z" fill="#C38E97"/>
<path d="M123.79 94.5652C124.443 95.606 124.994 96.705 125.645 97.7459C125.975 98.2742 126.801 97.7647 126.472 97.238C125.82 96.1972 125.269 95.0982 124.617 94.0574C124.286 93.5291 123.459 94.0369 123.79 94.5652Z" fill="#C38E97"/>
<path d="M129.026 97.3841C129.318 97.8463 129.671 98.3526 129.741 98.906C129.818 99.5145 130.794 99.4815 130.716 98.8651C130.623 98.1309 130.245 97.4926 129.853 96.8747C129.519 96.3511 128.692 96.8589 129.026 97.3841Z" fill="#C38E97"/>
<path d="M133.038 99.5775C133.36 100.647 133.288 101.752 133.22 102.851C133.181 103.467 134.156 103.423 134.194 102.812C134.27 101.625 134.317 100.447 133.969 99.2929C133.79 98.6986 132.859 98.9832 133.038 99.5775Z" fill="#C38E97"/>
<path d="M126.209 105.359C126.862 106.399 127.413 107.498 128.064 108.539C128.394 109.068 129.22 108.558 128.891 108.031C128.239 106.991 127.688 105.892 127.036 104.851C126.706 104.324 125.878 104.832 126.209 105.359Z" fill="#C38E97"/>
<path d="M131.445 108.179C131.737 108.641 132.09 109.148 132.16 109.701C132.237 110.31 133.213 110.277 133.135 109.66C133.042 108.926 132.664 108.288 132.272 107.67C131.938 107.145 131.112 107.654 131.445 108.179Z" fill="#C38E97"/>
<path d="M135.457 110.371C135.779 111.44 135.707 112.545 135.639 113.644C135.6 114.261 136.575 114.217 136.613 113.605C136.688 112.418 136.736 111.24 136.388 110.086C136.209 109.494 135.278 109.777 135.457 110.371Z" fill="#C38E97"/>
<path d="M135.158 95.2773C135.522 96.109 135.72 96.9376 135.706 97.8448C135.696 98.4642 136.671 98.4218 136.681 97.8039C136.697 96.8212 136.484 95.8904 136.089 94.9911C135.843 94.4298 134.909 94.7081 135.158 95.2773Z" fill="#C38E97"/>
<path d="M131.481 93.3591C131.756 93.7726 132.143 94.1452 132.525 94.4612C133.006 94.859 133.675 94.1609 133.194 93.7632C132.87 93.4943 132.52 93.1688 132.309 92.8512C131.965 92.3324 131.138 92.8402 131.481 93.3591Z" fill="#C38E97"/>
<path d="M132.44 87.152C133.087 87.7023 133.431 88.4931 133.771 89.2478C134.022 89.8059 134.956 89.5292 134.702 88.9632C134.295 88.0592 133.888 87.1158 133.109 86.4539C132.635 86.0498 131.965 86.7463 132.44 87.152Z" fill="#C38E97"/>
<path d="M144.751 105.289C144.955 104.47 145.28 103.687 145.817 103.022C146.205 102.539 145.499 101.879 145.107 102.363C144.46 103.165 144.048 104.082 143.802 105.074C143.65 105.675 144.601 105.89 144.751 105.289Z" fill="#C38E97"/>
<path d="M148.509 98.5916C148.963 97.5932 149.861 97.0067 150.707 96.3543C151.198 95.9769 150.687 95.1578 150.191 95.5398C149.215 96.2929 148.173 96.9847 147.651 98.134C147.395 98.6969 148.252 99.156 148.509 98.5916Z" fill="#C38E97"/>
<path d="M150.236 104.324C151.177 103.593 152.118 102.857 153.133 102.225C153.665 101.893 153.149 101.079 152.617 101.411C151.602 102.043 150.661 102.779 149.72 103.51C149.231 103.89 149.742 104.709 150.236 104.324Z" fill="#C38E97"/>
<path d="M150.663 108.046C151.698 107.775 152.606 107.168 153.572 106.738C154.138 106.486 153.855 105.565 153.283 105.821C152.318 106.25 151.402 106.86 150.373 107.129C149.765 107.288 150.056 108.204 150.663 108.046Z" fill="#C38E97"/>
<path d="M159.105 107.819C160.022 106.778 161.294 106.126 162.323 105.201C162.79 104.783 162.074 104.128 161.614 104.543C160.585 105.469 159.316 106.115 158.396 107.16C157.984 107.627 158.693 108.286 159.105 107.819Z" fill="#C38E97"/>
<path d="M159.077 103.675C159.629 103.038 160.337 102.557 160.89 101.92C161.298 101.45 160.59 100.791 160.181 101.261C159.628 101.898 158.92 102.379 158.367 103.016C157.96 103.486 158.669 104.146 159.077 103.675Z" fill="#C38E97"/>
<path d="M157.266 97.7457C158.184 96.6986 159.399 95.9738 160.579 95.249C161.112 94.9204 160.596 94.1059 160.063 94.4345C158.816 95.2002 157.527 95.9801 156.559 97.0869C156.146 97.5555 156.856 98.2158 157.266 97.7457Z" fill="#C38E97"/>
<path d="M155.718 93.257C156.282 92.4913 157.067 91.9599 157.936 91.5731C158.501 91.3215 158.22 90.4017 157.647 90.6564C156.629 91.1077 155.673 91.6957 155.009 92.5982C154.644 93.0919 155.351 93.7554 155.718 93.257Z" fill="#C38E97"/>
<path d="M163.271 89.754C164.236 89.0276 165.37 88.622 166.458 88.1157C167.027 87.8516 166.503 87.0403 165.942 87.3013C164.853 87.8076 163.721 88.2132 162.755 88.9396C162.258 89.3138 162.771 90.1298 163.271 89.754Z" fill="#C38E97"/>
<path d="M164.857 93.5619C165.412 92.9031 165.963 92.2963 166.765 91.9284C167.336 91.6674 166.811 90.8561 166.249 91.1139C165.38 91.5133 164.75 92.1878 164.148 92.9031C163.748 93.378 164.456 94.0399 164.857 93.5619Z" fill="#C38E97"/>
<path d="M165.286 99.079C166.39 98.1969 167.257 97.1388 167.959 95.9235C168.27 95.3842 167.411 94.9298 167.101 95.4659C166.489 96.5272 165.738 97.4926 164.77 98.2646C164.285 98.6498 164.797 99.4689 165.286 99.079Z" fill="#C38E97"/>
<path d="M170.839 89.4064C171.507 88.636 172.337 88.0134 173.121 87.364C173.604 86.9663 172.886 86.3122 172.412 86.7053C171.626 87.3546 170.798 87.9772 170.13 88.7476C169.723 89.2177 170.43 89.8781 170.839 89.4064Z" fill="#C38E97"/>
<path d="M133.237 70.9798C133.781 71.6322 134.126 72.4074 134.333 73.2202C134.487 73.8208 135.418 73.5347 135.265 72.9341C135.014 71.9514 134.559 71.0647 133.907 70.2817C133.507 69.8021 132.844 70.5081 133.237 70.9798Z" fill="#D7665B"/>
<path d="M132.028 74.2201C131.747 75.4701 131.625 76.8254 132.293 77.9778C132.605 78.5171 133.431 78.0061 133.121 77.47C132.59 76.5518 132.758 75.4198 132.979 74.4371C133.113 73.8318 132.164 73.6148 132.028 74.2201Z" fill="#D7665B"/>
<path d="M135.193 78.9321C135.406 79.8 135.637 80.6569 135.997 81.4791C136.243 82.042 137.177 81.7637 136.928 81.1946C136.569 80.3723 136.339 79.5154 136.125 78.6475C135.978 78.0453 135.046 78.3331 135.193 78.9321Z" fill="#D7665B"/>
<path d="M137.893 76.2971C138.355 77.0392 138.711 77.8379 139.068 78.6319C139.319 79.19 140.253 78.9133 139.999 78.3473C139.609 77.4794 139.224 76.6005 138.719 75.7892C138.392 75.2594 137.564 75.7688 137.893 76.2971Z" fill="#D7665B"/>
<path d="M141.274 82.877C141.479 83.7119 141.683 84.5468 141.888 85.3801C142.035 85.9822 142.966 85.6945 142.819 85.0955C142.615 84.2606 142.41 83.4258 142.206 82.5909C142.059 81.9903 141.127 82.278 141.274 82.877Z" fill="#D7665B"/>
<path d="M138.794 85.5452C138.941 86.8596 139.333 88.1316 139.48 89.4444C139.549 90.056 140.523 90.0215 140.455 89.4051C140.308 88.0907 139.916 86.8188 139.769 85.5059C139.702 84.8943 138.726 84.9289 138.794 85.5452Z" fill="#D7665B"/>
<path d="M141.527 92.6691C141.493 93.7257 141.436 94.7838 141.584 95.8341C141.67 96.441 142.645 96.4079 142.559 95.7932C142.41 94.7413 142.468 93.6848 142.501 92.6282C142.522 92.0103 141.547 92.0528 141.527 92.6691Z" fill="#D7665B"/>
<path d="M147.036 90.3751C147.643 89.405 148.304 88.4805 149.039 87.5985C149.437 87.1221 148.728 86.4617 148.33 86.9397C147.542 87.8846 146.83 88.8767 146.178 89.9175C145.847 90.4458 146.707 90.8986 147.036 90.3751Z" fill="#D7665B"/>
<path d="M152.612 86.5419C153.556 85.7967 154.418 84.9571 155.362 84.2118C155.848 83.8298 155.336 83.0106 154.846 83.3974C153.901 84.1426 153.04 84.9822 152.096 85.7275C151.612 86.1095 152.122 86.9287 152.612 86.5419Z" fill="#D7665B"/>
<path d="M154.978 81.0689C155.731 80.3032 156.484 79.5407 157.397 78.9605C157.926 78.6256 157.41 77.8112 156.881 78.1461C155.897 78.7687 155.078 79.5863 154.269 80.4102C153.83 80.8567 154.542 81.5139 154.978 81.0689Z" fill="#D7665B"/>
<path d="M159.291 84.0199C160.168 82.8408 161.047 81.6616 161.924 80.4808C162.291 79.9871 161.585 79.3236 161.214 79.822C160.337 81.0012 159.459 82.1804 158.581 83.3612C158.214 83.8549 158.92 84.5184 159.291 84.0199Z" fill="#D7665B"/>
<path d="M162.569 77.9496C163.154 77.1399 163.865 76.4229 164.631 75.7783C165.11 75.3758 164.394 74.7218 163.921 75.1195C163.086 75.8239 162.349 76.61 161.711 77.4921C161.347 77.9968 162.21 78.4464 162.569 77.9496Z" fill="#D7665B"/>
<path d="M166.564 76.3631C166.433 77.7074 166.139 79.0202 165.832 80.3346C165.69 80.9383 166.641 81.1537 166.783 80.5516C167.091 79.2372 167.384 77.9243 167.516 76.58C167.574 75.9731 166.625 75.7483 166.564 76.3631Z" fill="#D7665B"/>
<path d="M164.632 82.0311C164.516 82.5295 164.397 83.0279 164.281 83.5279C164.138 84.1316 165.089 84.347 165.231 83.7448C165.348 83.2464 165.466 82.748 165.583 82.248C165.723 81.6443 164.773 81.4289 164.632 82.0311Z" fill="#D7665B"/>
<path d="M168.039 82.0185C168.01 82.1427 167.98 82.2685 167.951 82.3927C167.89 82.6474 168.058 82.91 168.317 82.9682C168.576 83.0279 168.842 82.8628 168.901 82.6081C168.93 82.4839 168.961 82.3581 168.989 82.2339C169.05 81.9792 168.882 81.7167 168.623 81.6585C168.365 81.6003 168.098 81.7638 168.039 82.0185Z" fill="#D7665B"/>
<path d="M152.122 65.3933C151.866 66.4766 151.607 67.5615 151.187 68.596C150.955 69.1652 151.812 69.6258 152.045 69.0535C152.499 67.9357 152.796 66.78 153.072 65.6103C153.214 65.0065 152.264 64.7896 152.122 65.3933Z" fill="#D1BFA8"/>
<path d="M149.286 68.1635C148.514 69.5518 147.819 70.981 147.09 72.3929C146.806 72.9448 147.664 73.4023 147.948 72.8504C148.677 71.4401 149.37 70.0094 150.144 68.6211C150.447 68.0771 149.588 67.6211 149.286 68.1635Z" fill="#D1BFA8"/>
<path d="M144.602 73.5344C144.35 74.6664 144.253 75.8204 144.414 76.9713C144.499 77.5782 145.475 77.5452 145.389 76.932C145.238 75.8597 145.318 74.8063 145.553 73.7513C145.687 73.146 144.737 72.929 144.602 73.5344Z" fill="#D1BFA8"/>
<path d="M146.969 78.8015C146.751 79.726 146.571 80.6411 146.531 81.5907C146.505 82.2086 147.48 82.1661 147.506 81.5514C147.541 80.6882 147.721 79.8565 147.918 79.0185C148.062 78.4147 147.111 78.1978 146.969 78.8015Z" fill="#D1BFA8"/>
<path d="M150.29 74.0407C150.025 75.2309 149.913 76.4478 149.645 77.638C149.509 78.2418 150.46 78.4587 150.596 77.855C150.862 76.6648 150.976 75.4479 151.241 74.2577C151.375 73.6523 150.425 73.4354 150.29 74.0407Z" fill="#D1BFA8"/>
<path d="M153.365 72.1116C153.446 72.8584 153.617 73.5895 153.641 74.3427C153.662 74.9606 154.636 74.9213 154.616 74.3018C154.592 73.5487 154.419 72.8176 154.339 72.0707C154.272 71.4607 153.298 71.4953 153.365 72.1116Z" fill="#D1BFA8"/>
<path d="M154.45 68.0442C155.074 68.7988 155.536 69.7092 155.705 70.6745C155.811 71.2751 156.787 71.2437 156.68 70.6337C156.482 69.5032 156.015 68.4278 155.277 67.5363C154.884 67.0615 154.052 67.5646 154.45 68.0442Z" fill="#D1BFA8"/>
<path d="M124.146 62.4594C125.119 62.8855 125.534 63.8241 125.645 64.8209C125.712 65.4325 126.686 65.3979 126.619 64.7816C126.476 63.4704 125.899 62.1795 124.611 61.6167C124.037 61.3651 123.571 62.2078 124.146 62.4594Z" fill="#D1BFA8"/>
<path d="M124.005 65.8271C124.093 67.2799 124.352 68.7091 124.859 70.0801C125.073 70.6587 126.006 70.3788 125.79 69.7955C125.311 68.5 125.063 67.1636 124.98 65.7878C124.943 65.1699 123.969 65.2077 124.005 65.8271Z" fill="#D1BFA8"/>
<path d="M126.886 69.4575C127.306 70.1462 127.492 70.9323 127.682 71.7059C127.829 72.308 128.76 72.0203 128.613 71.4213C128.402 70.5644 128.179 69.7123 127.714 68.9497C127.389 68.4183 126.562 68.9261 126.886 69.4575Z" fill="#D1BFA8"/>
<path d="M124.442 73.0391C124.98 73.8629 125.71 74.6868 126.552 75.2214C127.081 75.5578 127.541 74.7104 127.017 74.3771C126.322 73.9353 125.712 73.2073 125.269 72.5297C124.929 72.0108 124.101 72.5187 124.442 73.0391Z" fill="#D1BFA8"/>
<path d="M127.917 64.3021C128.989 64.7408 130.051 65.1857 131.183 65.4562C131.795 65.6024 132.013 64.6669 131.403 64.5207C130.357 64.2691 129.376 63.8635 128.382 63.4562C127.807 63.222 127.337 64.0647 127.917 64.3021Z" fill="#D1BFA8"/>
<path d="M134.672 66.2328C135.476 66.6306 136.343 66.9608 137.054 67.5126C137.545 67.8947 138.218 67.1982 137.724 66.8146C136.939 66.2045 136.022 65.8272 135.136 65.3885C134.575 65.1102 134.11 65.9545 134.672 66.2328Z" fill="#D1BFA8"/>
<path d="M139.021 69.2423C139.103 69.9954 139.288 70.7406 139.553 71.4513C139.769 72.0299 140.702 71.7484 140.485 71.1667C140.248 70.5347 140.068 69.8743 139.996 69.203C139.931 68.5913 138.954 68.6259 139.021 69.2423Z" fill="#D1BFA8"/>
<path d="M141.944 67.8068C142.365 66.0616 142.942 64.3588 143.364 62.6136C143.509 62.0114 142.559 61.796 142.413 62.3966C141.992 64.1418 141.415 65.8446 140.993 67.5898C140.848 68.192 141.798 68.4089 141.944 67.8068Z" fill="#D1BFA8"/>
<path d="M146.288 64.6576C146.611 63.3495 147.079 62.0822 147.402 60.7725C147.55 60.1704 146.6 59.955 146.451 60.5556C146.128 61.8637 145.66 63.1309 145.337 64.4406C145.189 65.0428 146.139 65.2582 146.288 64.6576Z" fill="#D1BFA8"/>
<path d="M140.381 62.5256C140.637 61.4879 141.068 60.6578 141.915 59.9707C142.401 59.5761 141.683 58.9236 141.206 59.3119C140.236 60.0996 139.724 61.1232 139.432 62.3102C139.283 62.9108 140.234 63.1262 140.381 62.5256Z" fill="#D1BFA8"/>
<path d="M145.136 58.4848C145.456 57.2396 146.099 56.15 146.729 55.0368C147.036 54.4944 146.176 54.04 145.871 54.5793C145.198 55.7695 144.527 56.9377 144.185 58.2678C144.03 58.8684 144.981 59.0838 145.136 58.4848Z" fill="#D1BFA8"/>
<path d="M147.413 55.9017C147.798 56.7585 148.181 57.6264 148.341 58.5572C148.445 59.1578 149.421 59.1279 149.316 58.5179C149.14 57.4959 148.769 56.562 148.344 55.6187C148.094 55.0574 147.157 55.3341 147.413 55.9017Z" fill="#D1BFA8"/>
<path d="M150.899 60.1434C150.922 60.178 150.944 60.2126 150.965 60.2488C150.973 60.2614 150.981 60.2755 150.987 60.2897C151.029 60.362 150.939 60.1733 150.965 60.2425C150.977 60.2881 150.973 60.2614 150.952 60.1623C150.957 60.2016 150.938 60.2739 150.961 60.0947C150.957 60.1293 150.947 60.1639 150.939 60.1985C150.88 60.4532 151.045 60.7157 151.305 60.7739C151.564 60.8321 151.831 60.6686 151.89 60.4139C151.925 60.2661 151.935 60.134 151.904 59.9846C151.879 59.8589 151.796 59.7409 151.727 59.634C151.586 59.4123 151.279 59.3432 151.054 59.4815C150.829 59.6199 150.759 59.9218 150.899 60.1434Z" fill="#D1BFA8"/>
<path d="M159.649 67.1574C160.47 66.332 161.393 65.6481 162.448 65.1355C163.012 64.8604 162.49 64.0491 161.932 64.3211C160.807 64.8682 159.815 65.6182 158.939 66.4987C158.497 66.942 159.209 67.5977 159.649 67.1574Z" fill="#D1BFA8"/>
<path d="M161.432 70.0063C162.082 69.0189 163.129 68.379 164.055 67.6684C164.546 67.291 164.035 66.4735 163.539 66.8539C162.47 67.6762 161.325 68.4089 160.575 69.5488C160.232 70.0708 161.093 70.522 161.432 70.0063Z" fill="#D1BFA8"/>
<path d="M167.516 65.203C168.187 64.3052 169.179 63.7204 170.125 63.1386C170.659 62.81 170.143 61.9956 169.609 62.3242C168.599 62.9452 167.523 63.5867 166.807 64.5442C166.438 65.0379 167.144 65.7014 167.516 65.203Z" fill="#D1BFA8"/>
<path d="M167.484 68.7437C168.069 68.0645 168.758 67.4812 169.342 66.802C169.748 66.3303 169.039 65.6715 168.633 66.1432C168.048 66.8224 167.36 67.4057 166.775 68.085C166.369 68.5551 167.078 69.2154 167.484 68.7437Z" fill="#D1BFA8"/>
<path d="M73.0889 85.5435C73.0138 80.3771 72.5776 74.6871 73.2454 69.3572C73.5586 66.8604 74.0955 64.4218 74.7585 61.9943C75.2842 60.073 76.7845 57.9646 76.6727 55.9772C73.7583 57.246 71.432 59.0903 69.7878 61.8889C68.949 63.3181 67.5318 65.186 66.9342 66.8714C67.9121 62.554 67.5909 57.0747 67.8338 52.7164C68.0814 48.2669 69.2031 43.3866 68.0782 39.1635C66.105 42.4228 64.2947 46.116 63.2258 49.8108C61.1886 45.3189 59.5317 40.709 57.0503 36.2501C55.4701 33.4122 53.7557 30.667 52.2794 27.7505C51.3734 25.9613 50.402 23.5416 48.7419 22.3828C49.9067 27.6829 47.3438 34.8162 47.1025 40.261C46.9779 43.0659 46.8741 45.951 47.0035 48.7464C47.1041 50.946 48.0356 53.6582 47.6378 55.8122C43.6769 54.5905 38.866 52.6818 34.6287 53.1975C39.6441 60.3953 50.1399 66.1639 52.0605 75.1619C47.3694 73.7186 41.9737 71.6621 37.1244 71.4325C40.8121 73.9607 43.6354 78.9196 46.5817 82.2544C49.4369 85.4885 51.3926 88.9176 53.3898 92.4693C48.9959 92.7964 42.6463 89.8185 38.6854 91.6093C45.5287 96.7978 51.7457 101.497 57.2277 108.346C62.1776 114.531 69.0545 130.812 71.6844 138.099L81.7648 129.784C81.7584 129.809 81.49 125.663 81.3797 124.226C81.1577 121.341 80.9164 118.556 80.8461 115.695C80.7087 110.096 80.8093 104.437 81.0139 98.8826C81.2887 91.4254 81.915 82.2025 84.7223 75.3144C79.8571 77.753 77.2559 82.7968 73.0889 85.5435Z" fill="#EE4226"/>
<path d="M48.7418 22.3811C48.7418 22.3811 52.1547 30.5065 52.5829 39.7215C53.0111 48.935 58.0697 66.8713 58.0697 66.8713C58.0697 66.8713 59.0315 63.1749 60.8898 57.6641C62.748 52.1518 63.8393 47.8926 63.8393 47.8926C63.8393 47.8926 60.4184 38.6099 56.2258 32.7108C52.0348 26.8086 48.7418 22.3811 48.7418 22.3811Z" fill="#C1222D"/>
<path d="M62.7097 71.3286L67.4344 65.3839C67.4344 65.3839 68.3978 61.6875 68.4729 55.5462C68.5496 49.4034 68.0799 39.1633 68.0799 39.1633C68.0799 39.1633 66.5108 49.9018 65.5426 55.7286C64.5759 61.5554 62.7097 71.3286 62.7097 71.3286Z" fill="#C1222D"/>
<path d="M66.6626 100.983C66.6626 100.983 65.6464 99.1009 68.27 93.4015C70.8936 87.7036 71.6461 92.8433 73.001 84.2604C74.356 75.6759 76.6712 55.9771 76.6712 55.9771C76.6712 55.9771 71.9625 61.884 69.7224 68.0221C67.4807 74.1586 66.6626 100.983 66.6626 100.983Z" fill="#C1222D"/>
<path d="M75.0062 133.025C75.0062 133.025 69.2909 124.303 69.9444 116.157C70.5979 108.009 73.0936 101.81 75.4615 96.1733C77.831 90.5368 84.7223 75.311 84.7223 75.311C84.7223 75.311 83.7732 80.8344 83.0542 89.7962C82.3352 98.7581 82.6276 111.732 80.8317 118.561C79.0342 125.387 75.0062 133.025 75.0062 133.025Z" fill="#C1222D"/>
<path d="M44.5029 75.841C45.7779 77.3928 47.4556 78.5736 48.9543 79.9022C49.5791 80.4572 50.5266 79.561 49.8954 79.0013C48.3967 77.6727 46.7206 76.4904 45.4456 74.9401C44.9119 74.2923 43.974 75.1964 44.5029 75.841Z" fill="#FBF9F7"/>
<path d="M53.5464 78.3832C54.9844 79.4916 55.6427 81.5277 56.5294 83.0418C56.9528 83.7619 58.0985 83.1314 57.675 82.4082C56.6413 80.6457 55.8999 78.5671 54.2238 77.2763C53.5592 76.7638 52.8881 77.8769 53.5464 78.3832Z" fill="#FBF9F7"/>
<path d="M52.96 85.3326C54.0049 87.3278 54.7048 89.5132 56.1492 91.2804C56.6796 91.9298 57.6175 91.0242 57.0902 90.3795C55.7305 88.7161 55.0882 86.5778 54.104 84.6989C53.7157 83.9584 52.5717 84.5936 52.96 85.3326Z" fill="#FBF9F7"/>
<path d="M59.9726 91.7867C60.3321 93.1766 60.7827 94.5712 61.3882 95.8777C61.7397 96.6356 62.8837 95.9988 62.5338 95.2441C61.9762 94.0429 61.5783 92.7521 61.2476 91.4754C61.0383 90.6689 59.7633 90.9802 59.9726 91.7867Z" fill="#FBF9F7"/>
<path d="M64.1812 86.3044C64.6286 84.0765 65.4131 81.9366 66.148 79.7905C66.4197 78.9981 65.1574 78.6396 64.8874 79.4257C64.1524 81.5734 63.3679 83.7117 62.9205 85.9396C62.7576 86.7525 64.0166 87.1219 64.1812 86.3044Z" fill="#FBF9F7"/>
<path d="M61.8341 79.5563C62.8199 78.1287 63.2177 76.4102 64.0933 74.9228C64.5183 74.2028 63.3935 73.5345 62.9685 74.2562C62.0929 75.7436 61.6934 77.4636 60.7092 78.8896C60.2331 79.5814 61.3595 80.2449 61.8341 79.5563Z" fill="#FBF9F7"/>
<path d="M42.0391 57.7615C43.426 58.5696 44.9119 59.2017 46.2381 60.1088C46.9347 60.5852 47.6074 59.4768 46.9156 59.002C45.5894 58.0932 44.1035 57.4612 42.7166 56.6546C41.988 56.2301 41.3089 57.337 42.0391 57.7615Z" fill="#FBF9F7"/>
<path d="M50.2182 63.4421C51.3015 64.8445 52.1707 66.3948 53.0798 67.9104C53.5096 68.6258 54.6569 67.9969 54.2254 67.2768C53.2572 65.6621 52.3161 64.0364 51.1609 62.5412C50.648 61.8777 49.7117 62.7849 50.2182 63.4421Z" fill="#FBF9F7"/>
<path d="M52.3976 58.1373C52.69 59.252 53.1166 60.3259 53.4106 61.4406C53.6215 62.2472 54.8965 61.9374 54.6856 61.1293C54.3932 60.0146 53.965 58.9407 53.6726 57.826C53.4601 57.0194 52.1851 57.3291 52.3976 58.1373Z" fill="#FBF9F7"/>
<path d="M50.8429 49.4631C50.4163 47.5041 50.8573 45.4947 50.4307 43.5294C50.2533 42.7134 48.9799 43.0279 49.1556 43.8407C49.5823 45.7998 49.1413 47.8091 49.5679 49.7744C49.7452 50.5904 51.0203 50.276 50.8429 49.4631Z" fill="#FBF9F7"/>
<path d="M50.795 40.778C50.8094 39.4511 51.0123 38.1697 51.3718 36.8914C51.5971 36.088 50.3364 35.7232 50.1111 36.5267C49.7229 37.9071 49.4976 39.3096 49.4816 40.7435C49.472 41.5783 50.7854 41.6098 50.795 40.778Z" fill="#FBF9F7"/>
<path d="M61.2892 66.9529C61.7941 65.1873 62.5355 63.4987 63.0403 61.733C63.2704 60.9296 62.0098 60.5664 61.7797 61.3683C61.2748 63.1339 60.5334 64.8225 60.0285 66.5882C59.8001 67.3916 61.0607 67.7548 61.2892 66.9529Z" fill="#FBF9F7"/>
<path d="M45.6166 94.8732C46.9412 95.7867 48.5501 96.2112 49.9434 97.0131C50.6736 97.4344 51.3526 96.3276 50.6209 95.9062C49.2276 95.1044 47.6186 94.6798 46.2941 93.7664C45.599 93.2868 44.9264 94.3968 45.6166 94.8732Z" fill="#FBF9F7"/>
<path d="M56.4272 100.975C58.2023 102.961 59.4326 105.333 60.8978 107.535C61.358 108.226 62.5068 107.601 62.0418 106.901C60.5143 104.604 59.2201 102.145 57.3667 100.073C56.8091 99.4484 55.8696 100.351 56.4272 100.975Z" fill="#FBF9F7"/>
<path d="M56.6316 96.329C57.1461 97.4437 57.9242 98.4216 58.7231 99.3509C59.2711 99.9876 60.209 99.0836 59.6642 98.4499C58.934 97.6009 58.2454 96.7142 57.7772 95.6969C57.4273 94.9375 56.2833 95.5759 56.6316 96.329Z" fill="#FBF9F7"/>
<path d="M64.1125 102.492C64.7548 105.12 65.1223 107.803 65.9228 110.393C66.1689 111.187 67.4439 110.88 67.1978 110.082C66.3973 107.492 66.0298 104.808 65.3875 102.181C65.1894 101.371 63.9144 101.683 64.1125 102.492Z" fill="#FBF9F7"/>
<path d="M70.9494 98.8525C71.9257 96.5758 73.4484 94.5791 74.6323 92.4093C75.0318 91.6767 73.9085 91.0069 73.5075 91.7427C72.2692 94.0146 70.713 96.1041 69.6904 98.4893C69.3596 99.2565 70.6251 99.6103 70.9494 98.8525Z" fill="#FBF9F7"/>
<path d="M33.7355 92.5006L86.4463 127.215L105.457 139.387L123.834 127.806L176.916 92.7333L180.089 86.9521L180.244 168.287L178.907 170.434L174.722 174.236L172.377 175.395L39.259 175.638L36.0699 174.161L32.208 170.703L31.0289 168.23L30.8787 88.2162L33.7355 92.5006Z" fill="white"/>
<path d="M101.758 111.209C100.23 112.534 99.4762 114.61 99.5512 116.586C99.6295 118.68 100.75 120.441 102.651 121.372C103.427 121.753 104.247 122.037 104.992 122.477C105.778 122.943 106.174 123.623 106.34 124.499C106.701 126.421 104.859 128.408 103.429 129.48C103.068 129.751 102.878 130.181 103.13 130.604C103.34 130.955 103.91 131.17 104.273 130.898C105.93 129.656 107.577 127.865 107.978 125.792C108.393 123.642 107.213 121.732 105.31 120.773C104.488 120.359 103.614 120.061 102.82 119.594C102.028 119.13 101.568 118.278 101.344 117.424C100.879 115.647 101.55 113.575 102.939 112.369C103.747 111.668 102.561 110.511 101.758 111.209Z" fill="#706264"/>
<path d="M82.2856 112.501C82.6052 111.558 83.8259 111.118 84.7047 110.873C85.7816 110.572 86.924 110.558 87.9993 110.869C89.9662 111.44 90.8465 113.486 91.6039 115.173C92.5498 117.28 93.4653 119.325 95.5504 120.566C97.6068 121.789 100.189 121.93 102.485 121.41C108.026 120.155 111.003 114.663 114.614 110.884C116.189 109.234 117.978 107.72 119.774 106.308C121.623 104.856 123.702 103.39 126.007 102.757C126.87 102.519 127.752 102.492 128.613 102.744C128.859 102.816 129.016 102.901 129.163 103.051C129.31 103.198 129.072 102.911 129.184 103.079C129.209 103.117 129.289 103.296 129.206 103.095C129.228 103.15 129.243 103.208 129.259 103.264C129.292 103.398 129.256 103.11 129.265 103.349C129.268 103.414 129.264 103.478 129.259 103.543C129.244 103.764 129.292 103.367 129.249 103.595C129.222 103.739 129.177 103.882 129.129 104.022C129.04 104.285 128.893 104.569 128.696 104.907C128.291 105.612 127.797 106.272 127.294 106.911C126.322 108.142 125.17 109.31 124.392 110.676C123.631 112.009 124.165 113.432 124.892 114.659C125.737 116.083 126.867 117.325 127.696 118.761C127.882 119.081 127.989 119.308 128.078 119.555C128.222 119.956 128.223 119.967 128.209 120.316C128.199 120.534 128.246 120.143 128.203 120.356C128.19 120.421 128.169 120.482 128.148 120.544C128.206 120.372 128.057 120.693 128.009 120.761C128.129 120.594 127.754 120.978 127.869 120.891C127.696 121.022 127.501 121.124 127.306 121.218C126.389 121.661 125.229 121.806 124.219 121.808C123.807 121.808 123.452 121.759 123.058 121.644C122.793 121.567 122.433 121.367 122.28 121.242C121.264 120.408 121.005 118.89 120.656 117.519C120.361 116.354 120.02 115.155 119.329 114.151C118.125 112.407 116.012 111.847 113.981 112.314C112.933 112.557 113.377 114.14 114.425 113.899C115.636 113.619 116.895 113.841 117.74 114.792C118.153 115.256 118.451 115.96 118.662 116.594C119.158 118.083 119.356 119.658 120.073 121.073C120.883 122.672 122.455 123.419 124.221 123.449C125.958 123.479 128.684 123.05 129.599 121.356C130.352 119.967 129.47 118.385 128.695 117.212C127.79 115.843 126.664 114.596 125.95 113.112C125.862 112.928 125.756 112.632 125.691 112.319C125.641 112.082 125.704 112.484 125.68 112.248C125.673 112.178 125.672 112.107 125.672 112.036C125.672 112.003 125.694 111.774 125.665 111.979C125.677 111.904 125.694 111.832 125.717 111.759C125.769 111.58 125.651 111.865 125.779 111.613C125.838 111.498 125.905 111.387 125.974 111.277C126.156 110.984 126.365 110.706 126.575 110.431C127.546 109.157 128.779 107.794 129.729 106.393C130.507 105.244 131.387 103.672 130.658 102.301C129.802 100.691 127.183 100.782 125.689 101.142C123.312 101.714 121.16 103.2 119.25 104.646C117.419 106.033 115.671 107.549 114.019 109.138C111.969 111.11 110.327 113.45 108.419 115.549C106.705 117.435 104.722 119.143 102.183 119.795C100.039 120.345 97.6579 120.08 95.8396 118.786C94.9321 118.141 94.4096 117.185 93.9207 116.225C93.4334 115.27 93.0355 114.273 92.5689 113.308C91.54 111.179 89.9742 109.429 87.4896 109.085C85.0961 108.753 81.5459 109.516 80.6799 112.066C80.3331 113.072 81.9469 113.5 82.2856 112.501Z" fill="#706264"/>
<path d="M91.532 123.106C92.0369 120.726 92.0433 118.268 91.1134 115.986C90.2937 113.971 88.8557 112.297 87.2659 110.824C85.5211 109.206 83.583 107.802 81.7424 106.293C80.6559 105.401 79.5774 104.484 78.6443 103.434C77.9045 102.601 77.2558 101.591 77.2957 100.448C77.3341 99.3353 78.157 98.3338 78.8712 97.5445C79.7036 96.6247 80.6703 95.8386 81.5666 94.9833C83.1564 93.4645 84.6791 91.7539 85.5451 89.7241C85.9238 88.8358 86.074 87.8704 85.895 86.9192C85.7033 85.9067 84.9923 85.1095 84.1822 84.5089C82.5317 83.2841 80.0823 82.7999 78.0579 83.0624C76.222 83.2998 74.645 84.3202 74.4501 86.2447C74.3335 87.3909 74.8192 88.5811 75.3161 89.5873C75.8018 90.57 76.5112 91.4048 77.39 92.0668C78.9814 93.2632 81.0841 93.5054 83.003 93.7742C85.16 94.0761 87.4353 94.466 89.1577 95.8889C90.9983 97.4093 90.8593 99.7221 90.2681 101.801C89.6434 104 88.5393 106.036 87.905 108.233C87.4097 109.946 87.5024 111.744 87.5136 113.506C87.5231 115.182 87.5727 117.081 86.7115 118.589C85.7304 120.306 83.436 120.525 81.6769 120.064C79.432 119.474 77.6489 117.757 75.7779 116.495C74.8208 115.849 73.7966 115.298 72.6862 114.959C71.4527 114.583 70.1521 114.603 68.8898 114.808C66.0809 115.264 63.558 116.905 61.401 118.65C59.236 120.402 57.3746 122.451 55.6634 124.627C53.9282 126.834 52.2122 129.089 49.9753 130.834C48.8952 131.677 47.6809 132.317 46.3947 132.795C45.4616 133.14 44.105 133.623 43.2103 132.939C42.2708 132.222 42.6159 130.861 42.9291 129.909C43.2662 128.887 43.8398 127.993 44.7777 127.427C46.727 126.249 49.4752 127.248 51.335 128.12C52.3927 128.617 53.4009 129.222 54.3468 129.903C55.2959 130.585 56.1076 131.433 56.9832 132.2C58.9436 133.917 61.1054 135.436 63.6379 136.2C66.3573 137.021 69.2541 136.752 71.9352 135.93C77.3469 134.269 81.6497 130.417 86.5325 127.744C89.2647 126.249 92.1248 125.185 95.2932 125.314C96.7839 125.375 98.2506 125.691 99.687 126.067C101.178 126.457 102.638 127.048 104.154 127.326C106.601 127.776 108.895 126.872 110.568 125.109C112.009 123.592 113.712 120.949 112.722 118.812C111.886 117.011 109.526 116.624 107.74 116.507C104.907 116.324 102.101 117.118 99.2716 116.816C97.0715 116.581 94.7291 115.272 94.4607 112.937C94.2386 111.022 95.1781 109.042 96.5666 107.741C97.0875 107.253 96.2998 106.48 95.7789 106.965C94.1699 108.473 93.1489 110.733 93.3471 112.937C93.5819 115.547 95.7837 117.173 98.2395 117.745C101.098 118.41 104.052 117.553 106.935 117.575C108.488 117.586 111.241 117.717 111.808 119.515C112.15 120.599 111.528 121.83 110.983 122.732C110.349 123.785 109.528 124.752 108.492 125.443C107.516 126.094 106.387 126.384 105.214 126.35C103.739 126.307 102.287 125.661 100.885 125.26C98.027 124.441 95.1142 123.929 92.1455 124.421C89.204 124.91 86.4558 126.441 83.9537 127.977C79.2019 130.894 74.6994 134.603 69.0017 135.486C66.2407 135.914 63.4909 135.282 61.1038 133.895C59.9518 133.225 58.9021 132.4 57.8971 131.535C56.9927 130.757 56.1619 129.898 55.208 129.178C53.3386 127.766 51.1529 126.617 48.852 126.076C46.7813 125.589 44.3671 125.784 42.9594 127.542C41.71 129.103 40.6474 132.167 42.4274 133.713C43.3141 134.482 44.5364 134.444 45.6165 134.189C46.8341 133.901 48.034 133.361 49.1093 132.741C51.5603 131.326 53.4553 129.177 55.192 127.004C56.9208 124.842 58.5905 122.697 60.6229 120.795C62.7128 118.838 65.1302 117.031 67.912 116.168C69.1742 115.776 70.5499 115.614 71.8537 115.879C72.9929 116.108 74.0235 116.666 74.987 117.287C76.9362 118.545 78.6475 120.149 80.8668 120.957C82.7905 121.658 85.2128 121.543 86.8185 120.191C88.1607 119.061 88.477 117.166 88.5873 115.531C88.7119 113.703 88.5282 111.865 88.6895 110.038C88.8685 108.014 89.8735 106.102 90.6037 104.234C91.401 102.194 92.1679 99.917 91.6199 97.7206C91.0558 95.4581 88.8861 94.1138 86.7738 93.4236C84.7973 92.7774 82.6899 92.735 80.6719 92.2806C79.7324 92.0683 78.844 91.7366 78.0515 91.191C77.1408 90.5621 76.5304 89.6046 76.0862 88.6219C75.666 87.688 75.3544 86.5969 75.7299 85.6032C75.9984 84.8941 76.7701 84.4963 77.4603 84.2935C79.3729 83.7354 81.736 84.2573 83.3849 85.2919C84.2141 85.8123 84.8181 86.6094 84.8708 87.5937C84.9236 88.5575 84.4954 89.4961 84.0256 90.3153C82.9567 92.1784 81.3493 93.7428 79.7467 95.1641C78.0595 96.6609 75.8625 98.6938 76.2284 101.167C76.401 102.337 77.1024 103.33 77.8614 104.211C78.7753 105.272 79.8778 106.179 80.9595 107.069C82.7969 108.583 84.7286 109.989 86.483 111.599C87.9354 112.931 89.2759 114.454 90.0444 116.276C90.9248 118.36 90.9248 120.633 90.4631 122.814C90.3129 123.504 91.385 123.796 91.532 123.106Z" fill="#706264"/>
<path d="M81.2343 78.1176C81.3654 79.432 80.9931 80.575 81.1193 81.9067C81.2615 83.4145 81.4724 84.5953 82.9775 85.2494C83.8643 85.6346 85.8743 85.3563 85.5308 86.9175C84.7862 90.2931 79.1029 82.3139 79.178 87.0134C79.2323 90.3843 83.2268 90.7145 85.5803 91.0195C86.8825 91.1878 87.8987 91.6044 89.0379 92.2553C88.2981 95.1593 82.0923 90.5604 80.4882 90.6846C78.4286 90.8434 79.2579 92.7364 80.1958 93.8244C81.2407 95.0382 82.944 95.9596 84.4586 96.3778C86.7722 97.0161 89.3942 96.307 91.6071 97.4249C93.4542 98.3573 92.8997 99.3556 91.0703 99.5144C89.4661 99.6544 87.945 98.8541 86.4719 98.4563C85.0498 98.0711 79.5423 95.631 80.4115 98.6104C81.0298 100.73 84.3133 101.89 86.1603 102.412C89.7601 103.429 95.4977 105.657 98.6997 102.521L98.7716 102.742C104.212 103.649 108.005 96.7614 106.041 92.0635C105.452 90.6548 104.292 85.7556 102.271 88.2445C101.299 89.441 102.389 91.1186 101.464 92.2742C100.072 94.0084 99.3564 92.0619 99.5209 90.6878C99.8165 88.2272 101.966 85.633 101.29 83.0733C100.291 79.2984 97.6052 81.9287 96.8351 84.3532C96.4947 85.4223 96.907 88.1219 95.33 88.2288C93.0963 88.3813 93.8776 85.2336 94.2387 84.1944C94.6717 82.946 97.6803 74.4872 93.0979 75.9306C90.7204 76.679 91.9938 79.8927 91.54 81.4917C91.27 82.4444 90.3593 83.5529 89.2999 82.5278C88.4339 81.6882 89.3207 80.0845 89.3479 79.2402C89.375 78.399 89.2664 77.7953 88.7199 77.1208C87.969 76.1947 87.3299 76.5312 86.4463 76.429C84.3021 76.1806 82.8593 75.9039 81.0522 74.6775C80.4466 75.7152 81.1225 76.9966 81.2343 78.1176Z" fill="#51B8A9"/>
<path d="M61.1502 104.475C62.0769 105.439 73.1208 107.217 70.1697 110.052C68.8483 111.321 66.6338 109.223 65.6624 108.638C64.1397 107.72 62.4269 107.176 60.6262 107.211C58.6928 107.248 56.2642 107.575 54.7064 108.799C52.9121 110.207 52.4615 111.879 54.847 112.234C56.7068 112.511 58.6721 111.718 60.5191 112.141C63.1235 112.739 63.3967 114.306 60.583 114.179C56.9081 114.012 53.9139 113.822 50.7055 116.501C49.4369 117.559 48.6444 118.869 50.6528 119.432C52.2106 119.869 53.9922 118.314 55.6091 118.556C56.6109 118.705 57.3667 118.649 57.3491 119.9C57.3299 121.344 56.7435 120.641 55.7417 121.001C53.7381 121.718 52.7667 121.918 51.5667 123.889C50.5394 125.576 50.223 127.016 50.7918 128.906C51.6211 131.659 52.3944 133.09 52.3656 135.887C55.3135 134.379 56.7915 136.83 59.5524 137.483C64.4944 138.649 63.3408 133.354 64.0262 130.629C64.7564 127.729 65.6352 128.996 65.8844 131.148C66.0762 132.809 66.033 134.58 66.4149 136.205C67.4087 140.432 70.8951 136.857 71.2658 134.153C71.4927 132.496 68.8915 124.318 72.4226 124.855C75.1835 125.274 73.0968 132.794 74.0092 134.824C74.7633 136.502 76.4458 136.153 77.7048 134.631C78.8472 133.249 78.3551 131.499 78.1171 129.845C77.8566 128.04 75.4999 120.575 79.3154 121.414C82.7602 122.172 81.3046 128.713 81.1273 130.931C82.9679 130.993 85.0514 131.449 86.1986 129.675C87.0359 128.38 86.4766 125.465 86.5517 123.906C86.6396 122.067 87.1365 119.82 87.0838 118.144C87.0183 116.053 85.2735 114.869 84.5401 113.753L83.4776 113.399C83.1357 113.209 80.8205 112.802 80.2725 112.188C79.4145 111.226 79.9369 109.717 79.6174 108.473C78.9655 105.932 77.013 103.799 74.57 102.788C72.0423 101.742 68.9857 101.407 66.3382 101.165C64.7372 101.014 58.2471 101.456 61.1502 104.475Z" fill="#51B8A9"/>
<path d="M148.506 92.4818C150.218 92.6139 154.098 93.1296 153.762 90.1124C153.547 88.1801 150.455 86.9711 151.498 84.6001C150.508 84.8564 149.833 85.3878 148.694 85.4475C147.587 85.5057 146.707 85.2196 145.681 85.0513C143.751 84.7369 141.132 84.4287 140.36 86.6C139.989 87.644 140.654 91.8513 138.107 90.6344C135.616 89.4442 139.053 86.8736 138.82 85.5057C136.238 84.5215 134.437 87.5717 134.252 89.6801C134.137 90.9819 134.747 92.1611 133.32 92.6595C131.504 93.2947 131.472 91.6753 131.638 90.3891C131.764 89.4018 132.71 87.5229 131.2 86.9805C129.863 86.4994 128.701 88.515 128.243 89.4631C127.031 91.9645 127.939 94.2679 127.869 96.848C124.999 97.675 126.172 92.5258 125.95 91.4897C125.212 88.0575 122.441 93.1406 122.155 94.3591C121.663 96.4675 121.629 99.6356 122.69 101.582C123.267 102.642 127.116 105.28 127.71 104.107L127.067 105.271C126.787 108.074 131.783 108.346 133.645 108.421C136.494 108.535 138.702 108.291 141.138 106.961C145.665 104.488 137.869 105.667 137.105 104.571C135.079 101.659 142.431 103.896 143.062 103.972C146.526 104.385 148.081 100.48 144.321 99.8305C143.332 99.6592 140.7 100.115 141.45 98.447C141.995 97.2379 145.054 97.3448 146.109 97.5272C147.469 97.763 148.921 98.9281 150.338 97.9517C151.748 96.98 151.337 95.4329 150.059 94.7427C149.11 94.2302 147.116 94.5493 146.357 93.7113C145.046 92.268 147.405 92.3969 148.506 92.4818Z" fill="#51B8A9"/>
<path d="M82.9455 78.5658C81.1001 79.0815 79.539 80.7072 77.8358 81.2135C77.5977 79.4007 80.7006 78.9604 81.1576 77.2923C81.7743 75.0377 79.2754 74.2452 77.6313 75.2766C76.679 75.8741 75.2346 79.1758 73.9756 79.1067C72.5487 79.028 74.4549 75.4747 74.2759 74.36C72.0183 73.7956 72.9658 77.5438 70.8199 77.4306C70.7065 75.1744 70.4477 73.2343 67.6228 73.3852C65.7678 73.4843 63.1634 75.5392 61.6135 74.4984L62.1136 75.1556C62.16 75.459 62.6185 77.0313 62.6137 78.113C62.6105 79.1271 62.5099 81.116 63.8201 81.5295C64.8666 81.8597 66.5555 79.4824 67.2553 80.4462C68.2843 81.8644 64.9832 82.4414 64.4512 82.6772C63.2608 83.2055 62.5035 84.3643 64.3218 84.9806C65.8285 85.4916 66.8383 84.119 68.0031 83.5766C69.1567 83.0404 70.8902 83.1788 69.9651 84.858C69.35 85.9743 67.4279 85.8579 66.4548 86.2887C63.5548 87.5717 65.445 89.9804 67.9567 89.7791C70.085 89.6078 70.5355 86.7006 72.774 86.5198C72.8459 86.8091 72.9514 87.5308 72.9402 87.7666C72.1189 88.5685 71.8984 89.6612 70.9286 90.3955C69.93 91.1517 68.452 91.2838 68.2954 92.7318C68.0206 95.2883 72.5376 95.3984 73.9292 93.8497C75.8242 91.7382 75.65 88.8892 76.4745 86.4947C77.1951 84.402 81.7328 84.5404 83.5239 82.4194C84.8277 80.8739 85.7129 77.7938 82.9455 78.5658Z" fill="#009685"/>
<path d="M37.0317 124.501C37.8066 126.229 39.6601 127.523 40.4046 129.112C38.6135 129.595 37.7395 126.633 35.9979 126.419C33.6428 126.13 33.1922 128.677 34.4577 130.136C35.1911 130.982 38.7142 131.931 38.8196 133.167C38.9395 134.57 35.0984 133.203 34.0007 133.534C33.7467 135.812 37.3864 134.368 37.5702 136.475C35.3157 136.898 33.3983 137.42 33.9432 140.151C34.3011 141.945 36.7297 144.198 35.8973 145.854L36.4885 145.275C36.7872 145.189 38.3067 144.524 39.3948 144.377C40.4158 144.241 42.4322 144.061 42.6655 142.728C42.8524 141.662 40.2257 140.346 41.0997 139.532C42.3843 138.332 43.4228 141.47 43.7328 141.955C44.4294 143.041 45.7013 143.62 46.0687 141.761C46.3739 140.222 44.8528 139.428 44.145 138.368C43.4452 137.32 43.3445 135.609 45.1628 136.279C46.3723 136.724 46.5209 138.613 47.0897 139.5C48.7834 142.148 50.9452 139.972 50.3939 137.552C49.9274 135.502 46.9379 135.466 46.4442 133.31C46.7254 133.199 47.4365 132.997 47.6761 132.975C48.598 133.664 49.7277 133.728 50.6017 134.571C51.5012 135.439 51.8383 136.862 53.3179 136.812C55.9287 136.725 55.4126 132.307 53.6614 131.167C51.2743 129.614 48.4303 130.178 45.9058 129.707C43.6992 129.295 43.2103 124.855 40.828 123.402C39.0944 122.345 35.8701 121.911 37.0317 124.501Z" fill="#009685"/>
<path d="M119.81 105.56C117.84 105.414 115.838 107.057 113.772 105.995C112.201 105.189 112.506 103.963 114.08 103.244C116.863 101.974 120.407 105.411 121.864 101.577C123.767 96.5714 116.998 101.126 115.943 97.9974C117.173 96.3402 120.684 97.9723 122.564 96.9802C124.37 96.0289 126.186 91.8688 124.079 90.5323C123.291 91.7807 121.446 92.7099 120.161 91.6423C118.873 90.5716 120.354 89.2116 119.712 87.5561C118.69 84.9257 115.985 83.2496 116.649 80.1208C115.625 82.2984 109.176 80.6193 107.371 81.4415C103.442 83.2308 108.008 85.4414 108.611 87.4177C106.125 88.7777 104.337 84.0814 102.296 84.454C100.154 84.8455 101.66 89.3091 102.857 90.5952C104.092 91.9238 108.095 94.8733 104.038 94.856C101.443 94.845 100.101 92.4929 99.4603 90.3751C97.6036 92.092 96.9278 91.9269 97.3656 94.7586C97.6388 96.5274 98.6566 97.7474 99.0928 99.4517C99.3772 100.559 99.0672 103.271 97.2985 103C95.4482 102.717 96.1353 99.653 96.5539 98.5414C92.4316 95.5966 91.4953 101.216 91.8309 104.326C92.0625 106.477 93.1618 108.192 94.7085 109.709C95.9563 110.932 98.5527 111.115 99.3995 112.318L102.119 112.393C106.165 117.825 113.963 115.21 118.576 111.972C120.279 110.777 123.903 105.867 119.81 105.56Z" fill="#009685"/>
<path d="M116.782 79.6145C116.727 79.7875 116.686 79.9557 116.651 80.1208C116.721 79.9714 116.766 79.8032 116.782 79.6145Z" fill="#009685"/>
<path d="M102.459 110.146C102.665 108.027 103.963 106.192 105.238 104.544C106.562 102.834 108.194 101.214 109.183 99.2772C110.293 97.1012 111.562 94.9629 112.043 92.5448C112.468 90.4097 112.209 88.1488 112.966 86.0703C113.088 85.7369 112.549 85.5954 112.429 85.924C111.675 87.9947 111.889 90.2635 111.506 92.3986C111.274 93.6957 110.753 94.9315 110.186 96.117C109.654 97.227 109.103 98.3685 108.464 99.4234C106.339 102.934 102.323 105.824 101.903 110.145C101.868 110.498 102.426 110.495 102.459 110.146Z" fill="#51B8A9"/>
<path d="M95.1398 104.755C96.9277 106.805 99.5289 108.704 102.347 108.942C102.705 108.972 102.702 108.425 102.347 108.395C99.6823 108.17 97.2153 106.299 95.5328 104.368C95.2996 104.099 94.9065 104.489 95.1398 104.755Z" fill="#51B8A9"/>
<path d="M102.608 108.97C103.202 109.838 104.452 110.141 105.425 110.354C106.975 110.693 108.585 110.789 110.169 110.789C111.654 110.789 113.171 110.693 114.62 110.355C115.347 110.185 116.542 109.877 116.649 108.995C116.692 108.645 116.135 108.649 116.093 108.995C116.021 109.59 114.558 109.814 114.129 109.902C112.795 110.178 111.412 110.242 110.052 110.242C108.619 110.242 107.174 110.143 105.768 109.866C104.92 109.7 103.616 109.462 103.089 108.693C102.889 108.404 102.407 108.678 102.608 108.97Z" fill="#51B8A9"/>
<path d="M108.598 100.554C111.373 100.044 114.339 99.568 117.13 100.225C117.478 100.307 117.627 99.7787 117.279 99.697C114.384 99.0162 111.329 99.4973 108.449 100.026C108.098 100.092 108.248 100.618 108.598 100.554Z" fill="#51B8A9"/>
<path d="M100.537 95.9391C101.55 96.9926 103.052 97.4595 104.359 98.0491C105.725 98.6654 107.187 99.4972 107.133 101.167C107.122 101.521 107.678 101.519 107.689 101.167C107.804 97.5837 102.868 97.568 100.93 95.5524C100.684 95.2945 100.291 95.6829 100.537 95.9391Z" fill="#51B8A9"/>
<path d="M111.269 95.172C111.979 93.7648 114.024 93.7255 115.4 93.7255C116.898 93.7255 118.381 93.9834 119.877 93.9928C120.236 93.9944 120.236 93.4472 119.877 93.4457C118.207 93.4347 116.556 93.1438 114.882 93.1831C113.426 93.2177 111.515 93.4551 110.79 94.8953C110.629 95.2113 111.11 95.488 111.269 95.172Z" fill="#51B8A9"/>
<path d="M104.776 88.0387C105.642 89.2902 106.888 90.3374 108.064 91.298C108.705 91.8216 109.371 92.3231 110.084 92.7508C110.49 92.9945 111.028 93.3136 111.527 93.2665C111.88 93.2335 111.885 92.6847 111.527 92.7193C111.092 92.7602 110.625 92.4347 110.276 92.2241C109.595 91.8168 108.965 91.3263 108.353 90.8263C107.254 89.927 106.067 88.9333 105.255 87.762C105.056 87.4727 104.573 87.7463 104.776 88.0387Z" fill="#51B8A9"/>
<path d="M37.8529 142.344C37.8753 139.97 38.7972 137.702 39.9876 135.672C41.1108 133.755 42.5584 131.974 44.2824 130.546C44.5572 130.318 44.161 129.933 43.8893 130.159C42.0823 131.658 40.5963 133.538 39.4203 135.548C38.214 137.606 37.3193 139.947 37.2985 142.346C37.2937 142.698 37.8497 142.697 37.8529 142.344Z" fill="#D7665B"/>
<path d="M64.6941 76.734C66.5667 76.3866 68.2971 78.3299 69.3772 79.561C70.6346 80.9949 71.6652 82.5923 72.7277 84.1661C72.9258 84.4586 73.4068 84.185 73.2087 83.8894C72.0662 82.1992 70.9494 80.498 69.5881 78.9667C68.3786 77.6067 66.5731 75.8316 64.5471 76.2073C64.1924 76.2718 64.3426 76.8001 64.6941 76.734Z" fill="#51B8A9"/>
<path d="M57.8763 128.453C59.0954 120.606 68.2587 118.278 74.1082 114.654C74.4118 114.467 74.1321 113.992 73.827 114.18C67.8433 117.886 58.5857 120.281 57.3395 128.307C57.2867 128.653 57.822 128.802 57.8763 128.453Z" fill="#009685"/>
<path d="M128.826 103.319C131.625 96.1561 139.978 94.5005 145.448 89.9693C145.722 89.7413 145.326 89.3561 145.055 89.5825C142.18 91.9629 138.697 93.455 135.516 95.3763C132.367 97.2787 129.641 99.7142 128.289 103.175C128.16 103.505 128.698 103.646 128.826 103.319Z" fill="#009685"/>
<path d="M146.012 121.089C148.642 121.542 151.222 122.257 153.713 123.202C156.215 124.152 158.698 125.373 160.746 127.097C161.018 127.325 161.413 126.939 161.139 126.71C159.097 124.993 156.67 123.784 154.192 122.803C151.61 121.781 148.902 121.032 146.16 120.562C145.809 120.499 145.659 121.028 146.012 121.089Z" fill="#009685"/>
<path d="M82.348 124.515L33.7355 92.5007L30.8787 88.2163L31.0289 168.23L32.208 170.703L82.348 124.515Z" fill="#324C9A"/>
<path d="M86.4463 127.215L105.457 139.387L123.834 127.806L174.722 174.236L172.377 175.395L39.259 175.639L36.0698 174.161L86.4463 127.215Z" fill="#324C9A"/>
<path d="M101.272 152.471C102.504 150.932 102.544 146.295 101.756 144.621C100.478 141.901 97.7458 140.892 96.1608 138.602C95.4625 137.596 94.6269 136.036 96.4052 135.477C97.7809 135.044 99.8261 136.917 100.727 137.724C101.892 138.766 102.827 139.983 103.445 141.407C103.913 142.483 104.118 144.667 105.76 144.522C110.205 144.134 106.804 133.903 105.725 132.114C103.538 128.488 99.31 125.663 95.2852 124.639L93.5053 122.647C88.8461 118.509 82.872 114.116 76.4761 118.444C75.0397 119.416 70.6011 122.215 71.2146 124.001C72.4066 127.468 76.5672 124.179 78.5468 124.034C82.153 123.77 84.9044 127.702 80.4993 129.131C77.2095 130.197 73.8206 129.446 70.5787 130.968C69.1311 131.647 67.1706 132.151 67.3016 134.151C67.4215 135.992 68.933 136.607 70.5084 136.647C72.0423 136.684 79.9161 133.395 78.3775 137.169C76.9043 140.782 70.5627 139.063 69.3532 142.877C67.5861 148.451 75.3177 143.873 76.8516 145.978C75.8993 147.24 74.1657 147.633 73.3956 149.069C72.5807 150.588 72.6622 152.86 73.5122 154.319C75.241 157.282 79.3473 158.212 80.4897 161.711C82.1402 160.178 84.6695 159.251 86.237 157.561C88.1111 155.539 87.5487 153.75 87.6158 151.357C90.5781 151.531 88.664 157.66 92.5833 155.507C94.8522 154.261 94.1412 149.726 93.4126 147.788C93.0691 146.872 91.3211 144.926 92.9988 144.729C94.3601 144.571 95.6143 146.876 96.2023 147.852C97.1003 149.344 98.6341 155.767 101.272 152.471Z" fill="#009685"/>
<path d="M128.934 124.435L176.916 92.7333L180.089 86.9521L180.244 168.287L178.907 170.434L128.934 124.435Z" fill="#324C9A"/>
<path d="M147.045 127.227C146.467 125.487 142.813 123.053 141.078 122.787C138.258 122.355 136.037 123.919 133.399 123.946C132.239 123.957 130.567 123.788 131.05 122.139C131.422 120.863 133.969 120.27 135.076 119.999C136.51 119.649 137.959 119.565 139.408 119.83C140.504 120.029 142.34 121.004 143.08 119.674C145.083 116.073 135.209 113.371 133.231 113.268C129.22 113.061 124.783 114.828 121.879 117.375L119.375 117.704C113.674 119.12 107.086 121.411 107.189 128.546C107.211 130.148 107.12 134.992 108.854 135.45C112.22 136.335 111.778 131.449 112.693 129.861C114.36 126.966 118.907 126.9 117.747 131.01C116.881 134.077 114.521 136.28 114.042 139.547C113.827 141.006 113.208 142.767 114.86 143.704C116.381 144.567 117.654 143.731 118.504 142.546C119.332 141.393 120.821 133.667 123.012 136.8C125.108 139.8 120.447 143.758 122.841 146.662C126.336 150.902 126.731 142.616 129.197 142.536C129.701 143.92 129.11 145.448 129.847 146.781C130.627 148.191 132.467 149.308 134.067 149.413C137.315 149.629 140.186 146.97 143.553 147.91C143.198 145.854 143.778 143.439 143.254 141.363C142.627 138.882 140.916 138.385 139.055 137.093C140.734 134.918 144.594 139.56 144.927 135.445C145.12 133.065 141.158 131.257 139.242 130.81C138.339 130.599 135.886 130.927 136.604 129.541C137.185 128.419 139.664 128.655 140.744 128.711C142.399 128.796 148.285 130.953 147.045 127.227Z" fill="#009685"/>
<path d="M120.637 120.141C121.842 122.408 123.149 124.622 124.707 126.675C126.207 128.653 127.989 130.359 129.778 132.079C131.513 133.744 133.242 135.422 134.805 137.249C136.216 138.9 137.617 140.778 138.138 142.91C138.222 143.253 138.758 143.109 138.675 142.764C138.179 140.744 136.925 138.977 135.628 137.376C134.108 135.502 132.368 133.805 130.63 132.131C128.842 130.409 127.03 128.727 125.485 126.784C123.782 124.641 122.396 122.271 121.118 119.866C120.952 119.551 120.471 119.828 120.637 120.141Z" fill="#51B8A9"/>
<path d="M111.714 127.205C113.379 123.732 118.199 121.781 121.917 122.896C122.261 122.999 122.408 122.47 122.066 122.367C118.129 121.187 113.001 123.241 111.234 126.928C111.081 127.246 111.562 127.524 111.714 127.205Z" fill="#51B8A9"/>
<path d="M122.483 122.869C123.451 120.513 125.389 119.174 127.818 118.512C130.005 117.915 132.306 117.817 134.476 117.147C134.816 117.042 134.671 116.514 134.327 116.619C132.034 117.328 129.599 117.416 127.297 118.089C124.817 118.814 122.925 120.341 121.946 122.724C121.812 123.051 122.35 123.191 122.483 122.869Z" fill="#51B8A9"/>
<path d="M117.613 137.225C118.678 135.203 119.369 133.01 120.378 130.961C121.275 129.144 122.563 126.982 124.792 126.674C125.146 126.625 124.994 126.097 124.643 126.145C122.408 126.455 121.038 128.5 120.084 130.318C118.958 132.466 118.261 134.804 117.132 136.948C116.967 137.263 117.448 137.539 117.613 137.225Z" fill="#51B8A9"/>
<path d="M125.496 142.836C125.407 140.755 125.598 138.64 126.121 136.62C126.565 134.901 127.405 132.689 129.299 132.095C129.639 131.988 129.494 131.46 129.15 131.566C127.174 132.187 126.234 134.269 125.694 136.079C125.049 138.245 124.843 140.588 124.94 142.838C124.956 143.189 125.512 143.19 125.496 142.836Z" fill="#51B8A9"/>
<path d="M131.036 132.779C132.339 131.971 134.113 132 135.581 132.23C136.514 132.376 137.432 132.658 138.294 133.032C138.655 133.189 138.988 133.397 139.357 133.533C139.521 133.595 139.692 133.64 139.862 133.687C139.956 133.714 140.228 133.843 140.175 133.736C140.175 133.643 140.175 133.552 140.175 133.459C140.173 133.448 140.17 133.437 140.169 133.426C139.836 133.549 139.98 134.079 140.317 133.955C140.461 133.901 140.563 133.859 140.656 133.735C140.717 133.653 140.697 133.541 140.656 133.458C140.568 133.279 140.322 133.241 140.148 133.194C139.648 133.059 139.21 132.856 138.743 132.632C137.793 132.178 136.767 131.879 135.728 131.699C134.131 131.42 132.172 131.423 130.753 132.302C130.451 132.494 130.73 132.967 131.036 132.779Z" fill="#51B8A9"/>
<path d="M126.472 128.233C130.138 126.376 134.273 125.815 138.352 125.806C138.711 125.806 138.711 125.257 138.352 125.259C134.172 125.266 129.946 125.859 126.191 127.76C125.872 127.923 126.153 128.395 126.472 128.233Z" fill="#51B8A9"/>
<path d="M82.7156 150.699C82.5861 148.446 82.4871 146.185 82.6964 143.934C82.9185 141.553 83.5943 139.266 84.6169 137.101C85.5644 135.098 86.8746 133.276 88.3078 131.582C88.8526 130.938 89.4055 130.301 89.9231 129.634C90.3034 129.144 90.8179 128.557 90.9297 127.928C90.9777 127.666 90.5671 127.565 90.5191 127.829C90.4025 128.483 89.8033 129.114 89.4039 129.617C88.8526 130.312 88.263 130.977 87.6958 131.659C86.2626 133.386 84.9924 135.252 84.0657 137.291C83.1214 139.37 82.527 141.538 82.2873 143.802C82.0445 146.097 82.1595 148.413 82.2921 150.712C82.3081 150.978 82.7315 150.967 82.7156 150.699Z" fill="#51B8A9"/>
<path d="M82.126 124.457C85.5229 124.164 88.8303 127.859 87.9515 131.147C87.8812 131.406 88.2935 131.505 88.3622 131.246C89.3081 127.71 85.7833 123.726 82.1148 124.042C81.8448 124.065 81.8544 124.48 82.126 124.457Z" fill="#51B8A9"/>
<path d="M88.5219 131.367C89.5014 130.785 90.6166 130.228 91.7782 130.15C92.5324 130.099 93.3041 130.224 94.0391 130.379C94.8443 130.549 95.648 130.798 96.3686 131.198C96.8416 131.461 97.4328 131.906 97.2522 132.511C97.1755 132.769 97.5861 132.867 97.6628 132.61C98.1342 131.032 95.4914 130.302 94.4177 130.04C93.5805 129.835 92.6969 129.702 91.8325 129.733C90.5783 129.779 89.3512 130.392 88.2982 131.016C88.065 131.151 88.2886 131.505 88.5219 131.367Z" fill="#51B8A9"/>
<path d="M85.6682 135.337C87.4642 134.941 89.1195 135.637 90.46 136.793C91.1279 137.367 91.7031 138.041 92.2256 138.744C92.478 139.084 92.7129 139.434 92.9382 139.791C93.0995 140.046 93.2625 140.517 93.5022 140.698C93.5725 140.752 93.6795 140.783 93.7594 140.723C93.761 140.722 93.7626 140.72 93.7658 140.719C93.8409 140.662 93.8872 140.576 93.8569 140.481C93.7802 140.25 93.5341 139.907 93.2849 139.841C93.0213 139.772 92.9222 140.176 93.1842 140.245C93.2657 140.267 93.4255 140.524 93.4527 140.604C93.483 140.525 93.5134 140.445 93.5437 140.366C93.5421 140.368 93.5405 140.37 93.5373 140.371C93.6236 140.379 93.7083 140.388 93.7946 140.396C93.6652 140.299 93.5613 139.997 93.4766 139.857C93.36 139.664 93.2386 139.473 93.1139 139.285C92.8599 138.896 92.5883 138.519 92.3022 138.151C91.743 137.433 91.1135 136.766 90.3977 136.197C89.0108 135.095 87.3108 134.549 85.5452 134.939C85.2784 134.999 85.4046 135.395 85.6682 135.337Z" fill="#51B8A9"/>
<path d="M83.4681 140.149C84.8917 140.26 86.2306 140.954 87.3155 141.838C88.3717 142.698 89.3 143.898 89.4933 145.266C89.53 145.528 89.9535 145.519 89.9151 145.253C89.5045 142.346 86.3233 139.954 83.4553 139.733C83.1837 139.714 83.1997 140.129 83.4681 140.149Z" fill="#51B8A9"/>
<path d="M76.8166 140.703C77.8695 140.291 78.9129 139.86 79.9978 139.536C80.5666 139.366 81.1514 139.225 81.7457 139.184C82.1452 139.157 82.6741 139.17 82.8882 139.563C83.0176 139.799 83.3755 139.579 83.2477 139.343C82.7316 138.396 81.1657 138.802 80.3525 139.006C79.0934 139.322 77.8967 139.833 76.6935 140.305C76.4411 140.404 76.5625 140.802 76.8166 140.703Z" fill="#51B8A9"/>
<path d="M75.8435 133.365C77.5244 132.618 79.4001 132.131 81.2392 131.996C82.9984 131.867 85.2209 132.195 85.4973 134.268C85.5324 134.53 85.9558 134.522 85.9191 134.255C85.7977 133.346 85.3583 132.59 84.5498 132.115C83.6982 131.614 82.6261 131.533 81.6578 131.559C79.6478 131.609 77.5467 132.154 75.7173 132.967C75.4744 133.076 75.5942 133.475 75.8435 133.365Z" fill="#51B8A9"/>
</g>
<defs>
<clipPath id="clip0_52_424">
<rect width="227" height="212" fill="white"/>
</clipPath>
</defs>
</svg>
